<mxfile host="65bd71144e">
    <diagram id="jc8GnPzK6UfTBYYC9r-5" name="3">
        <mxGraphModel dx="640" dy="476" grid="1" gridSize="10" guides="1" tooltips="1" connect="1" arrows="1" fold="1" page="1" pageScale="1" pageWidth="827" pageHeight="1169" math="0" shadow="0">
            <root>
                <mxCell id="0"/>
                <mxCell id="1" parent="0"/>
                <mxCell id="4" value="" style="edgeStyle=none;html=1;" parent="1" source="2" target="3" edge="1">
                    <mxGeometry relative="1" as="geometry"/>
                </mxCell>
                <mxCell id="2" value="START" style="ellipse;whiteSpace=wrap;html=1;" parent="1" vertex="1">
                    <mxGeometry x="354" y="70" width="120" height="80" as="geometry"/>
                </mxCell>
                <mxCell id="6" value="" style="edgeStyle=none;html=1;" parent="1" source="3" target="5" edge="1">
                    <mxGeometry relative="1" as="geometry"/>
                </mxCell>
                <mxCell id="3" value="input number1" style="shape=parallelogram;perimeter=parallelogramPerimeter;whiteSpace=wrap;html=1;fixedSize=1;" parent="1" vertex="1">
                    <mxGeometry x="354" y="180" width="120" height="60" as="geometry"/>
                </mxCell>
                <mxCell id="8" value="" style="edgeStyle=none;html=1;" parent="1" source="5" target="7" edge="1">
                    <mxGeometry relative="1" as="geometry"/>
                </mxCell>
                <mxCell id="17" value="" style="edgeStyle=none;html=1;" parent="1" source="5" target="16" edge="1">
                    <mxGeometry relative="1" as="geometry">
                        <Array as="points">
                            <mxPoint x="700" y="310"/>
                        </Array>
                    </mxGeometry>
                </mxCell>
                <mxCell id="5" value="if number1&lt;br&gt;&amp;nbsp;is correct" style="rhombus;whiteSpace=wrap;html=1;" parent="1" vertex="1">
                    <mxGeometry x="374" y="270" width="80" height="80" as="geometry"/>
                </mxCell>
                <mxCell id="15" value="" style="edgeStyle=none;html=1;" parent="1" source="7" target="12" edge="1">
                    <mxGeometry relative="1" as="geometry"/>
                </mxCell>
                <mxCell id="7" value="a = number1" style="whiteSpace=wrap;html=1;" parent="1" vertex="1">
                    <mxGeometry x="354" y="380" width="120" height="60" as="geometry"/>
                </mxCell>
                <mxCell id="9" value="true" style="text;html=1;align=center;verticalAlign=middle;resizable=0;points=[];autosize=1;strokeColor=none;fillColor=none;" parent="1" vertex="1">
                    <mxGeometry x="414" y="340" width="40" height="30" as="geometry"/>
                </mxCell>
                <mxCell id="14" value="" style="edgeStyle=none;html=1;" parent="1" source="12" target="13" edge="1">
                    <mxGeometry relative="1" as="geometry"/>
                </mxCell>
                <mxCell id="12" value="input number2" style="shape=parallelogram;perimeter=parallelogramPerimeter;whiteSpace=wrap;html=1;fixedSize=1;" parent="1" vertex="1">
                    <mxGeometry x="354" y="470" width="120" height="60" as="geometry"/>
                </mxCell>
                <mxCell id="21" value="" style="edgeStyle=none;html=1;" parent="1" source="13" target="20" edge="1">
                    <mxGeometry relative="1" as="geometry"/>
                </mxCell>
                <mxCell id="22" value="" style="edgeStyle=none;html=1;" parent="1" source="13" target="20" edge="1">
                    <mxGeometry relative="1" as="geometry"/>
                </mxCell>
                <mxCell id="26" value="" style="edgeStyle=none;html=1;" parent="1" source="13" target="25" edge="1">
                    <mxGeometry relative="1" as="geometry">
                        <Array as="points">
                            <mxPoint x="564" y="600"/>
                        </Array>
                    </mxGeometry>
                </mxCell>
                <mxCell id="13" value="if number2&lt;br&gt;&amp;nbsp;is correct" style="rhombus;whiteSpace=wrap;html=1;" parent="1" vertex="1">
                    <mxGeometry x="374" y="560" width="80" height="80" as="geometry"/>
                </mxCell>
                <mxCell id="30" style="edgeStyle=none;html=1;entryX=1;entryY=0.5;entryDx=0;entryDy=0;" parent="1" source="16" target="28" edge="1">
                    <mxGeometry relative="1" as="geometry">
                        <Array as="points">
                            <mxPoint x="700" y="900"/>
                        </Array>
                    </mxGeometry>
                </mxCell>
                <mxCell id="16" value="Input a is not correct!" style="shape=document;whiteSpace=wrap;html=1;boundedLbl=1;" parent="1" vertex="1">
                    <mxGeometry x="640" y="750" width="120" height="80" as="geometry"/>
                </mxCell>
                <mxCell id="18" value="false" style="text;html=1;align=center;verticalAlign=middle;resizable=0;points=[];autosize=1;strokeColor=none;fillColor=none;" parent="1" vertex="1">
                    <mxGeometry x="454" y="280" width="50" height="30" as="geometry"/>
                </mxCell>
                <mxCell id="48" style="edgeStyle=none;html=1;" parent="1" source="20" target="33" edge="1">
                    <mxGeometry relative="1" as="geometry"/>
                </mxCell>
                <mxCell id="20" value="b = number2" style="whiteSpace=wrap;html=1;" parent="1" vertex="1">
                    <mxGeometry x="354" y="670" width="120" height="60" as="geometry"/>
                </mxCell>
                <mxCell id="24" value="true" style="text;html=1;align=center;verticalAlign=middle;resizable=0;points=[];autosize=1;strokeColor=none;fillColor=none;" parent="1" vertex="1">
                    <mxGeometry x="420" y="640" width="40" height="30" as="geometry"/>
                </mxCell>
                <mxCell id="29" style="edgeStyle=none;html=1;entryX=0;entryY=0.5;entryDx=0;entryDy=0;" parent="1" source="25" target="28" edge="1">
                    <mxGeometry relative="1" as="geometry">
                        <Array as="points">
                            <mxPoint x="564" y="900"/>
                        </Array>
                    </mxGeometry>
                </mxCell>
                <mxCell id="25" value="input b is not correct!" style="shape=document;whiteSpace=wrap;html=1;boundedLbl=1;" parent="1" vertex="1">
                    <mxGeometry x="504" y="750" width="120" height="80" as="geometry"/>
                </mxCell>
                <mxCell id="27" value="false" style="text;html=1;align=center;verticalAlign=middle;resizable=0;points=[];autosize=1;strokeColor=none;fillColor=none;" parent="1" vertex="1">
                    <mxGeometry x="460" y="570" width="50" height="30" as="geometry"/>
                </mxCell>
                <mxCell id="28" value="END&lt;br&gt;" style="ellipse;whiteSpace=wrap;html=1;aspect=fixed;" parent="1" vertex="1">
                    <mxGeometry x="590" y="860" width="80" height="80" as="geometry"/>
                </mxCell>
                <mxCell id="31" style="edgeStyle=orthogonalEdgeStyle;rounded=0;orthogonalLoop=1;jettySize=auto;html=1;" parent="1" source="33" target="37" edge="1">
                    <mxGeometry relative="1" as="geometry">
                        <mxPoint x="546" y="1093" as="targetPoint"/>
                    </mxGeometry>
                </mxCell>
                <mxCell id="32" value="" style="edgeStyle=orthogonalEdgeStyle;rounded=0;orthogonalLoop=1;jettySize=auto;html=1;" parent="1" source="33" target="42" edge="1">
                    <mxGeometry relative="1" as="geometry"/>
                </mxCell>
                <mxCell id="33" value="if a &amp;gt; b" style="rhombus;whiteSpace=wrap;html=1;" parent="1" vertex="1">
                    <mxGeometry x="376" y="938" width="80" height="80" as="geometry"/>
                </mxCell>
                <mxCell id="34" value="true" style="text;html=1;align=center;verticalAlign=middle;resizable=0;points=[];autosize=1;strokeColor=none;fillColor=none;rotation=0;" parent="1" vertex="1">
                    <mxGeometry x="466" y="948" width="40" height="30" as="geometry"/>
                </mxCell>
                <mxCell id="35" value="false" style="text;html=1;align=center;verticalAlign=middle;resizable=0;points=[];autosize=1;strokeColor=none;fillColor=none;" parent="1" vertex="1">
                    <mxGeometry x="356" y="1013" width="50" height="30" as="geometry"/>
                </mxCell>
                <mxCell id="36" style="edgeStyle=orthogonalEdgeStyle;rounded=0;orthogonalLoop=1;jettySize=auto;html=1;entryX=1;entryY=0.5;entryDx=0;entryDy=0;" parent="1" source="37" target="47" edge="1">
                    <mxGeometry relative="1" as="geometry"/>
                </mxCell>
                <mxCell id="37" value="a &amp;gt; b&lt;br&gt;b &amp;lt; a" style="shape=document;whiteSpace=wrap;html=1;boundedLbl=1;" parent="1" vertex="1">
                    <mxGeometry x="676" y="1203" width="120" height="80" as="geometry"/>
                </mxCell>
                <mxCell id="38" style="edgeStyle=orthogonalEdgeStyle;rounded=0;orthogonalLoop=1;jettySize=auto;html=1;" parent="1" source="39" target="47" edge="1">
                    <mxGeometry relative="1" as="geometry"/>
                </mxCell>
                <mxCell id="39" value="a &amp;lt; b&lt;br&gt;b &amp;gt; a" style="shape=document;whiteSpace=wrap;html=1;boundedLbl=1;" parent="1" vertex="1">
                    <mxGeometry x="506" y="1203" width="120" height="80" as="geometry"/>
                </mxCell>
                <mxCell id="40" style="edgeStyle=orthogonalEdgeStyle;rounded=0;orthogonalLoop=1;jettySize=auto;html=1;exitX=1;exitY=0.5;exitDx=0;exitDy=0;entryX=0.5;entryY=0;entryDx=0;entryDy=0;" parent="1" source="42" target="39" edge="1">
                    <mxGeometry relative="1" as="geometry"/>
                </mxCell>
                <mxCell id="41" value="" style="edgeStyle=orthogonalEdgeStyle;rounded=0;orthogonalLoop=1;jettySize=auto;html=1;" parent="1" source="42" target="45" edge="1">
                    <mxGeometry relative="1" as="geometry"/>
                </mxCell>
                <mxCell id="42" value="if a &amp;lt; b" style="rhombus;whiteSpace=wrap;html=1;" parent="1" vertex="1">
                    <mxGeometry x="376" y="1043" width="80" height="80" as="geometry"/>
                </mxCell>
                <mxCell id="43" value="true" style="text;html=1;align=center;verticalAlign=middle;resizable=0;points=[];autosize=1;strokeColor=none;fillColor=none;" parent="1" vertex="1">
                    <mxGeometry x="456" y="1051" width="40" height="30" as="geometry"/>
                </mxCell>
                <mxCell id="44" style="edgeStyle=orthogonalEdgeStyle;rounded=0;orthogonalLoop=1;jettySize=auto;html=1;entryX=0;entryY=0.625;entryDx=0;entryDy=0;entryPerimeter=0;" parent="1" source="45" target="47" edge="1">
                    <mxGeometry relative="1" as="geometry"/>
                </mxCell>
                <mxCell id="45" value="a = b" style="shape=document;whiteSpace=wrap;html=1;boundedLbl=1;" parent="1" vertex="1">
                    <mxGeometry x="356" y="1203" width="120" height="80" as="geometry"/>
                </mxCell>
                <mxCell id="46" value="false" style="text;html=1;align=center;verticalAlign=middle;resizable=0;points=[];autosize=1;strokeColor=none;fillColor=none;" parent="1" vertex="1">
                    <mxGeometry x="361" y="1121" width="50" height="30" as="geometry"/>
                </mxCell>
                <mxCell id="47" value="END" style="ellipse;whiteSpace=wrap;html=1;" parent="1" vertex="1">
                    <mxGeometry x="526" y="1333" width="80" height="80" as="geometry"/>
                </mxCell>
            </root>
        </mxGraphModel>
    </diagram>
    <diagram id="qJ51YuhqAKTaLkAQiSZA" name="4">
        <mxGraphModel dx="643" dy="476" grid="1" gridSize="10" guides="1" tooltips="1" connect="1" arrows="1" fold="1" page="1" pageScale="1" pageWidth="827" pageHeight="1169" math="0" shadow="0">
            <root>
                <mxCell id="0"/>
                <mxCell id="1" parent="0"/>
                <mxCell id="UUvjmaFfVONefS4JiOz--3" value="" style="edgeStyle=none;html=1;" parent="1" source="UUvjmaFfVONefS4JiOz--1" target="UUvjmaFfVONefS4JiOz--2" edge="1">
                    <mxGeometry relative="1" as="geometry"/>
                </mxCell>
                <mxCell id="UUvjmaFfVONefS4JiOz--1" value="START" style="ellipse;whiteSpace=wrap;html=1;" parent="1" vertex="1">
                    <mxGeometry x="400" y="10" width="120" height="80" as="geometry"/>
                </mxCell>
                <mxCell id="UUvjmaFfVONefS4JiOz--5" value="" style="edgeStyle=none;html=1;" parent="1" source="UUvjmaFfVONefS4JiOz--2" target="UUvjmaFfVONefS4JiOz--4" edge="1">
                    <mxGeometry relative="1" as="geometry"/>
                </mxCell>
                <mxCell id="UUvjmaFfVONefS4JiOz--2" value="input Byte number" style="shape=parallelogram;perimeter=parallelogramPerimeter;whiteSpace=wrap;html=1;fixedSize=1;" parent="1" vertex="1">
                    <mxGeometry x="400" y="110" width="120" height="60" as="geometry"/>
                </mxCell>
                <mxCell id="UUvjmaFfVONefS4JiOz--7" value="" style="edgeStyle=none;html=1;" parent="1" source="UUvjmaFfVONefS4JiOz--4" target="UUvjmaFfVONefS4JiOz--6" edge="1">
                    <mxGeometry relative="1" as="geometry"/>
                </mxCell>
                <mxCell id="UUvjmaFfVONefS4JiOz--11" value="" style="edgeStyle=none;html=1;" parent="1" source="UUvjmaFfVONefS4JiOz--4" target="UUvjmaFfVONefS4JiOz--10" edge="1">
                    <mxGeometry relative="1" as="geometry"/>
                </mxCell>
                <mxCell id="UUvjmaFfVONefS4JiOz--4" value="if number &amp;gt; 0 &lt;br&gt;&amp;amp;&amp;amp; &lt;br&gt;number &amp;lt; 8&amp;nbsp;" style="rhombus;whiteSpace=wrap;html=1;" parent="1" vertex="1">
                    <mxGeometry x="390" y="200" width="140" height="80" as="geometry"/>
                </mxCell>
                <mxCell id="UUvjmaFfVONefS4JiOz--16" value="" style="edgeStyle=none;html=1;" parent="1" source="UUvjmaFfVONefS4JiOz--6" target="UUvjmaFfVONefS4JiOz--15" edge="1">
                    <mxGeometry relative="1" as="geometry"/>
                </mxCell>
                <mxCell id="UUvjmaFfVONefS4JiOz--6" value="if number = 1" style="rhombus;whiteSpace=wrap;html=1;" parent="1" vertex="1">
                    <mxGeometry x="420" y="310" width="80" height="80" as="geometry"/>
                </mxCell>
                <mxCell id="UUvjmaFfVONefS4JiOz--8" value="true" style="text;html=1;align=center;verticalAlign=middle;resizable=0;points=[];autosize=1;strokeColor=none;fillColor=none;" parent="1" vertex="1">
                    <mxGeometry x="460" y="275" width="40" height="30" as="geometry"/>
                </mxCell>
                <mxCell id="UUvjmaFfVONefS4JiOz--9" value="false" style="text;html=1;align=center;verticalAlign=middle;resizable=0;points=[];autosize=1;strokeColor=none;fillColor=none;" parent="1" vertex="1">
                    <mxGeometry x="520" y="200" width="50" height="30" as="geometry"/>
                </mxCell>
                <mxCell id="UUvjmaFfVONefS4JiOz--13" value="" style="edgeStyle=none;html=1;entryX=1;entryY=0.5;entryDx=0;entryDy=0;" parent="1" target="UUvjmaFfVONefS4JiOz--14" edge="1">
                    <mxGeometry relative="1" as="geometry">
                        <mxPoint x="680" y="280" as="sourcePoint"/>
                        <mxPoint x="680" y="320" as="targetPoint"/>
                        <Array as="points">
                            <mxPoint x="680" y="730"/>
                        </Array>
                    </mxGeometry>
                </mxCell>
                <mxCell id="UUvjmaFfVONefS4JiOz--10" value="This number is not correct!" style="shape=document;whiteSpace=wrap;html=1;boundedLbl=1;" parent="1" vertex="1">
                    <mxGeometry x="620" y="200" width="120" height="80" as="geometry"/>
                </mxCell>
                <mxCell id="UUvjmaFfVONefS4JiOz--14" value="END" style="ellipse;whiteSpace=wrap;html=1;" parent="1" vertex="1">
                    <mxGeometry x="401" y="690" width="120" height="80" as="geometry"/>
                </mxCell>
                <mxCell id="UUvjmaFfVONefS4JiOz--15" value="Montag" style="shape=document;whiteSpace=wrap;html=1;boundedLbl=1;" parent="1" vertex="1">
                    <mxGeometry x="240" y="310" width="120" height="80" as="geometry"/>
                </mxCell>
                <mxCell id="UUvjmaFfVONefS4JiOz--17" value="true" style="text;html=1;align=center;verticalAlign=middle;resizable=0;points=[];autosize=1;strokeColor=none;fillColor=none;" parent="1" vertex="1">
                    <mxGeometry x="370" y="325" width="40" height="30" as="geometry"/>
                </mxCell>
                <mxCell id="UUvjmaFfVONefS4JiOz--20" value="" style="edgeStyle=none;html=1;" parent="1" target="UUvjmaFfVONefS4JiOz--22" edge="1">
                    <mxGeometry relative="1" as="geometry">
                        <mxPoint x="460" y="391" as="sourcePoint"/>
                    </mxGeometry>
                </mxCell>
                <mxCell id="UUvjmaFfVONefS4JiOz--21" value="" style="edgeStyle=none;html=1;" parent="1" source="UUvjmaFfVONefS4JiOz--22" target="UUvjmaFfVONefS4JiOz--23" edge="1">
                    <mxGeometry relative="1" as="geometry"/>
                </mxCell>
                <mxCell id="UUvjmaFfVONefS4JiOz--27" value="" style="edgeStyle=none;html=1;" parent="1" source="UUvjmaFfVONefS4JiOz--22" target="UUvjmaFfVONefS4JiOz--26" edge="1">
                    <mxGeometry relative="1" as="geometry"/>
                </mxCell>
                <mxCell id="UUvjmaFfVONefS4JiOz--22" value="if number = 2" style="rhombus;whiteSpace=wrap;html=1;" parent="1" vertex="1">
                    <mxGeometry x="420" y="421" width="80" height="80" as="geometry"/>
                </mxCell>
                <mxCell id="UUvjmaFfVONefS4JiOz--23" value="Dienstag" style="shape=document;whiteSpace=wrap;html=1;boundedLbl=1;" parent="1" vertex="1">
                    <mxGeometry x="240" y="421" width="120" height="80" as="geometry"/>
                </mxCell>
                <mxCell id="UUvjmaFfVONefS4JiOz--24" value="true" style="text;html=1;align=center;verticalAlign=middle;resizable=0;points=[];autosize=1;strokeColor=none;fillColor=none;" parent="1" vertex="1">
                    <mxGeometry x="370" y="436" width="40" height="30" as="geometry"/>
                </mxCell>
                <mxCell id="UUvjmaFfVONefS4JiOz--25" value="false" style="text;html=1;align=center;verticalAlign=middle;resizable=0;points=[];autosize=1;strokeColor=none;fillColor=none;" parent="1" vertex="1">
                    <mxGeometry x="460" y="390" width="50" height="30" as="geometry"/>
                </mxCell>
                <mxCell id="UUvjmaFfVONefS4JiOz--26" value="" style="shape=waypoint;sketch=0;size=6;pointerEvents=1;points=[];fillColor=default;resizable=0;rotatable=0;perimeter=centerPerimeter;snapToPoint=1;" parent="1" vertex="1">
                    <mxGeometry x="450" y="520" width="20" height="20" as="geometry"/>
                </mxCell>
                <mxCell id="UUvjmaFfVONefS4JiOz--33" value="" style="edgeStyle=none;html=1;" parent="1" source="UUvjmaFfVONefS4JiOz--28" target="UUvjmaFfVONefS4JiOz--30" edge="1">
                    <mxGeometry relative="1" as="geometry"/>
                </mxCell>
                <mxCell id="UUvjmaFfVONefS4JiOz--28" value="..." style="text;html=1;align=center;verticalAlign=middle;resizable=0;points=[];autosize=1;strokeColor=none;fillColor=none;" parent="1" vertex="1">
                    <mxGeometry x="445" y="520" width="30" height="30" as="geometry"/>
                </mxCell>
                <mxCell id="UUvjmaFfVONefS4JiOz--29" value="" style="edgeStyle=none;html=1;" parent="1" source="UUvjmaFfVONefS4JiOz--30" target="UUvjmaFfVONefS4JiOz--31" edge="1">
                    <mxGeometry relative="1" as="geometry"/>
                </mxCell>
                <mxCell id="UUvjmaFfVONefS4JiOz--36" value="" style="edgeStyle=none;html=1;" parent="1" source="UUvjmaFfVONefS4JiOz--30" edge="1">
                    <mxGeometry relative="1" as="geometry">
                        <mxPoint x="460.33333333333337" y="690" as="targetPoint"/>
                    </mxGeometry>
                </mxCell>
                <mxCell id="UUvjmaFfVONefS4JiOz--30" value="if number = 7" style="rhombus;whiteSpace=wrap;html=1;" parent="1" vertex="1">
                    <mxGeometry x="421" y="570" width="80" height="80" as="geometry"/>
                </mxCell>
                <mxCell id="UUvjmaFfVONefS4JiOz--31" value="Sonntag" style="shape=document;whiteSpace=wrap;html=1;boundedLbl=1;" parent="1" vertex="1">
                    <mxGeometry x="241" y="570" width="120" height="80" as="geometry"/>
                </mxCell>
                <mxCell id="UUvjmaFfVONefS4JiOz--32" value="true" style="text;html=1;align=center;verticalAlign=middle;resizable=0;points=[];autosize=1;strokeColor=none;fillColor=none;" parent="1" vertex="1">
                    <mxGeometry x="371" y="585" width="40" height="30" as="geometry"/>
                </mxCell>
                <mxCell id="UUvjmaFfVONefS4JiOz--34" value="false" style="text;html=1;align=center;verticalAlign=middle;resizable=0;points=[];autosize=1;strokeColor=none;fillColor=none;" parent="1" vertex="1">
                    <mxGeometry x="460" y="501" width="50" height="30" as="geometry"/>
                </mxCell>
                <mxCell id="UUvjmaFfVONefS4JiOz--41" value="false" style="text;html=1;align=center;verticalAlign=middle;resizable=0;points=[];autosize=1;strokeColor=none;fillColor=none;" parent="1" vertex="1">
                    <mxGeometry x="460" y="650" width="50" height="30" as="geometry"/>
                </mxCell>
            </root>
        </mxGraphModel>
    </diagram>
    <diagram id="9YDxBKLDCa4bt-mu3yhr" name="5_1">
        <mxGraphModel dx="643" dy="2814" grid="1" gridSize="10" guides="1" tooltips="1" connect="1" arrows="1" fold="1" page="1" pageScale="1" pageWidth="827" pageHeight="1169" math="0" shadow="0">
            <root>
                <mxCell id="0"/>
                <mxCell id="1" parent="0"/>
                <mxCell id="w6Q_Fr0dPaGGy52UlOVI-3" value="" style="edgeStyle=none;html=1;" parent="1" source="w6Q_Fr0dPaGGy52UlOVI-1" target="w6Q_Fr0dPaGGy52UlOVI-2" edge="1">
                    <mxGeometry relative="1" as="geometry"/>
                </mxCell>
                <mxCell id="w6Q_Fr0dPaGGy52UlOVI-1" value="START" style="ellipse;whiteSpace=wrap;html=1;" parent="1" vertex="1">
                    <mxGeometry x="210" y="-1210" width="120" height="80" as="geometry"/>
                </mxCell>
                <mxCell id="w6Q_Fr0dPaGGy52UlOVI-5" value="" style="edgeStyle=none;html=1;" parent="1" source="w6Q_Fr0dPaGGy52UlOVI-2" target="w6Q_Fr0dPaGGy52UlOVI-4" edge="1">
                    <mxGeometry relative="1" as="geometry"/>
                </mxCell>
                <mxCell id="w6Q_Fr0dPaGGy52UlOVI-2" value="input a, b , c" style="shape=parallelogram;perimeter=parallelogramPerimeter;whiteSpace=wrap;html=1;fixedSize=1;" parent="1" vertex="1">
                    <mxGeometry x="210" y="-1100" width="120" height="60" as="geometry"/>
                </mxCell>
                <mxCell id="w6Q_Fr0dPaGGy52UlOVI-7" value="" style="edgeStyle=none;html=1;" parent="1" source="w6Q_Fr0dPaGGy52UlOVI-4" target="w6Q_Fr0dPaGGy52UlOVI-6" edge="1">
                    <mxGeometry relative="1" as="geometry"/>
                </mxCell>
                <mxCell id="w6Q_Fr0dPaGGy52UlOVI-13" value="" style="edgeStyle=none;html=1;" parent="1" source="w6Q_Fr0dPaGGy52UlOVI-4" target="w6Q_Fr0dPaGGy52UlOVI-12" edge="1">
                    <mxGeometry relative="1" as="geometry"/>
                </mxCell>
                <mxCell id="w6Q_Fr0dPaGGy52UlOVI-4" value="if a &amp;gt;= b" style="rhombus;whiteSpace=wrap;html=1;" parent="1" vertex="1">
                    <mxGeometry x="230" y="-995" width="80" height="80" as="geometry"/>
                </mxCell>
                <mxCell id="w6Q_Fr0dPaGGy52UlOVI-10" value="" style="edgeStyle=none;html=1;" parent="1" source="w6Q_Fr0dPaGGy52UlOVI-6" target="w6Q_Fr0dPaGGy52UlOVI-9" edge="1">
                    <mxGeometry relative="1" as="geometry"/>
                </mxCell>
                <mxCell id="w6Q_Fr0dPaGGy52UlOVI-21" style="edgeStyle=none;html=1;entryX=1;entryY=0.5;entryDx=0;entryDy=0;" parent="1" source="w6Q_Fr0dPaGGy52UlOVI-6" target="w6Q_Fr0dPaGGy52UlOVI-18" edge="1">
                    <mxGeometry relative="1" as="geometry">
                        <Array as="points">
                            <mxPoint x="400" y="-710"/>
                        </Array>
                    </mxGeometry>
                </mxCell>
                <mxCell id="w6Q_Fr0dPaGGy52UlOVI-6" value="if a &amp;gt;= c" style="rhombus;whiteSpace=wrap;html=1;" parent="1" vertex="1">
                    <mxGeometry x="360" y="-995" width="80" height="80" as="geometry"/>
                </mxCell>
                <mxCell id="w6Q_Fr0dPaGGy52UlOVI-8" value="true" style="text;html=1;align=center;verticalAlign=middle;resizable=0;points=[];autosize=1;strokeColor=none;fillColor=none;" parent="1" vertex="1">
                    <mxGeometry x="310" y="-990" width="40" height="30" as="geometry"/>
                </mxCell>
                <mxCell id="w6Q_Fr0dPaGGy52UlOVI-26" style="edgeStyle=none;html=1;entryX=1;entryY=0.5;entryDx=0;entryDy=0;" parent="1" source="w6Q_Fr0dPaGGy52UlOVI-9" target="w6Q_Fr0dPaGGy52UlOVI-24" edge="1">
                    <mxGeometry relative="1" as="geometry">
                        <Array as="points">
                            <mxPoint x="560" y="-584"/>
                        </Array>
                    </mxGeometry>
                </mxCell>
                <mxCell id="w6Q_Fr0dPaGGy52UlOVI-9" value="a is max" style="shape=document;whiteSpace=wrap;html=1;boundedLbl=1;" parent="1" vertex="1">
                    <mxGeometry x="500" y="-995" width="120" height="80" as="geometry"/>
                </mxCell>
                <mxCell id="w6Q_Fr0dPaGGy52UlOVI-11" value="true" style="text;html=1;align=center;verticalAlign=middle;resizable=0;points=[];autosize=1;strokeColor=none;fillColor=none;" parent="1" vertex="1">
                    <mxGeometry x="450" y="-990" width="40" height="30" as="geometry"/>
                </mxCell>
                <mxCell id="w6Q_Fr0dPaGGy52UlOVI-15" value="" style="edgeStyle=none;html=1;" parent="1" source="w6Q_Fr0dPaGGy52UlOVI-12" target="w6Q_Fr0dPaGGy52UlOVI-14" edge="1">
                    <mxGeometry relative="1" as="geometry"/>
                </mxCell>
                <mxCell id="w6Q_Fr0dPaGGy52UlOVI-19" value="" style="edgeStyle=none;html=1;" parent="1" source="w6Q_Fr0dPaGGy52UlOVI-12" target="w6Q_Fr0dPaGGy52UlOVI-18" edge="1">
                    <mxGeometry relative="1" as="geometry"/>
                </mxCell>
                <mxCell id="w6Q_Fr0dPaGGy52UlOVI-12" value="if b &amp;gt;=c" style="rhombus;whiteSpace=wrap;html=1;" parent="1" vertex="1">
                    <mxGeometry x="230" y="-870" width="80" height="80" as="geometry"/>
                </mxCell>
                <mxCell id="w6Q_Fr0dPaGGy52UlOVI-27" style="edgeStyle=none;html=1;entryX=0;entryY=0.5;entryDx=0;entryDy=0;" parent="1" source="w6Q_Fr0dPaGGy52UlOVI-14" target="w6Q_Fr0dPaGGy52UlOVI-24" edge="1">
                    <mxGeometry relative="1" as="geometry">
                        <Array as="points">
                            <mxPoint x="110" y="-584"/>
                        </Array>
                    </mxGeometry>
                </mxCell>
                <mxCell id="w6Q_Fr0dPaGGy52UlOVI-14" value="b is max" style="shape=document;whiteSpace=wrap;html=1;boundedLbl=1;" parent="1" vertex="1">
                    <mxGeometry x="50" y="-870" width="120" height="80" as="geometry"/>
                </mxCell>
                <mxCell id="w6Q_Fr0dPaGGy52UlOVI-17" value="true" style="text;html=1;align=center;verticalAlign=middle;resizable=0;points=[];autosize=1;strokeColor=none;fillColor=none;" parent="1" vertex="1">
                    <mxGeometry x="190" y="-870" width="40" height="30" as="geometry"/>
                </mxCell>
                <mxCell id="w6Q_Fr0dPaGGy52UlOVI-25" style="edgeStyle=none;html=1;entryX=0.5;entryY=0;entryDx=0;entryDy=0;" parent="1" source="w6Q_Fr0dPaGGy52UlOVI-18" target="w6Q_Fr0dPaGGy52UlOVI-24" edge="1">
                    <mxGeometry relative="1" as="geometry"/>
                </mxCell>
                <mxCell id="w6Q_Fr0dPaGGy52UlOVI-18" value="c is max" style="shape=document;whiteSpace=wrap;html=1;boundedLbl=1;" parent="1" vertex="1">
                    <mxGeometry x="210" y="-750" width="120" height="80" as="geometry"/>
                </mxCell>
                <mxCell id="w6Q_Fr0dPaGGy52UlOVI-20" value="false" style="text;html=1;align=center;verticalAlign=middle;resizable=0;points=[];autosize=1;strokeColor=none;fillColor=none;" parent="1" vertex="1">
                    <mxGeometry x="260" y="-915" width="50" height="30" as="geometry"/>
                </mxCell>
                <mxCell id="w6Q_Fr0dPaGGy52UlOVI-22" value="false" style="text;html=1;align=center;verticalAlign=middle;resizable=0;points=[];autosize=1;strokeColor=none;fillColor=none;" parent="1" vertex="1">
                    <mxGeometry x="270" y="-790" width="50" height="30" as="geometry"/>
                </mxCell>
                <mxCell id="w6Q_Fr0dPaGGy52UlOVI-24" value="END" style="ellipse;whiteSpace=wrap;html=1;" parent="1" vertex="1">
                    <mxGeometry x="210" y="-624" width="120" height="80" as="geometry"/>
                </mxCell>
            </root>
        </mxGraphModel>
    </diagram>
    <diagram id="UiNUHQKIoUAfm3zGCqrH" name="5_2">
        <mxGraphModel dx="643" dy="476" grid="1" gridSize="10" guides="1" tooltips="1" connect="1" arrows="1" fold="1" page="1" pageScale="1" pageWidth="827" pageHeight="1169" math="0" shadow="0">
            <root>
                <mxCell id="0"/>
                <mxCell id="1" parent="0"/>
                <mxCell id="thcZUBoqs5VJvV3hqUbI-3" value="" style="edgeStyle=none;html=1;" parent="1" source="thcZUBoqs5VJvV3hqUbI-1" target="thcZUBoqs5VJvV3hqUbI-2" edge="1">
                    <mxGeometry relative="1" as="geometry"/>
                </mxCell>
                <mxCell id="thcZUBoqs5VJvV3hqUbI-1" value="START" style="ellipse;whiteSpace=wrap;html=1;" parent="1" vertex="1">
                    <mxGeometry x="380" y="10" width="120" height="80" as="geometry"/>
                </mxCell>
                <mxCell id="thcZUBoqs5VJvV3hqUbI-5" value="" style="edgeStyle=none;html=1;" parent="1" source="thcZUBoqs5VJvV3hqUbI-2" target="thcZUBoqs5VJvV3hqUbI-4" edge="1">
                    <mxGeometry relative="1" as="geometry"/>
                </mxCell>
                <mxCell id="thcZUBoqs5VJvV3hqUbI-2" value="input a, b, c" style="shape=parallelogram;perimeter=parallelogramPerimeter;whiteSpace=wrap;html=1;fixedSize=1;" parent="1" vertex="1">
                    <mxGeometry x="380" y="180" width="120" height="60" as="geometry"/>
                </mxCell>
                <mxCell id="thcZUBoqs5VJvV3hqUbI-7" value="" style="edgeStyle=none;html=1;" parent="1" source="thcZUBoqs5VJvV3hqUbI-4" target="thcZUBoqs5VJvV3hqUbI-6" edge="1">
                    <mxGeometry relative="1" as="geometry"/>
                </mxCell>
                <mxCell id="thcZUBoqs5VJvV3hqUbI-19" style="edgeStyle=none;html=1;entryX=0.5;entryY=0;entryDx=0;entryDy=0;" parent="1" source="thcZUBoqs5VJvV3hqUbI-4" target="thcZUBoqs5VJvV3hqUbI-14" edge="1">
                    <mxGeometry relative="1" as="geometry"/>
                </mxCell>
                <mxCell id="MhG5IHelKEbIozkXq4xq-3" value="" style="edgeStyle=none;html=1;" parent="1" source="thcZUBoqs5VJvV3hqUbI-4" target="thcZUBoqs5VJvV3hqUbI-14" edge="1">
                    <mxGeometry relative="1" as="geometry"/>
                </mxCell>
                <mxCell id="thcZUBoqs5VJvV3hqUbI-4" value="if a &amp;gt;= b&lt;br&gt;&amp;amp;&amp;amp;&lt;br&gt;a &amp;gt;= c" style="rhombus;whiteSpace=wrap;html=1;" parent="1" vertex="1">
                    <mxGeometry x="400" y="280" width="80" height="100" as="geometry"/>
                </mxCell>
                <mxCell id="MhG5IHelKEbIozkXq4xq-8" style="edgeStyle=none;html=1;entryX=1;entryY=0.5;entryDx=0;entryDy=0;" parent="1" source="thcZUBoqs5VJvV3hqUbI-6" target="MhG5IHelKEbIozkXq4xq-6" edge="1">
                    <mxGeometry relative="1" as="geometry">
                        <Array as="points">
                            <mxPoint x="690" y="330"/>
                            <mxPoint x="690" y="700"/>
                        </Array>
                    </mxGeometry>
                </mxCell>
                <mxCell id="thcZUBoqs5VJvV3hqUbI-6" value="a is max" style="shape=document;whiteSpace=wrap;html=1;boundedLbl=1;" parent="1" vertex="1">
                    <mxGeometry x="541" y="290" width="120" height="80" as="geometry"/>
                </mxCell>
                <mxCell id="MhG5IHelKEbIozkXq4xq-7" value="" style="edgeStyle=none;html=1;" parent="1" source="thcZUBoqs5VJvV3hqUbI-12" target="MhG5IHelKEbIozkXq4xq-6" edge="1">
                    <mxGeometry relative="1" as="geometry"/>
                </mxCell>
                <mxCell id="thcZUBoqs5VJvV3hqUbI-12" value="c is max" style="shape=document;whiteSpace=wrap;html=1;boundedLbl=1;" parent="1" vertex="1">
                    <mxGeometry x="380" y="560" width="120" height="80" as="geometry"/>
                </mxCell>
                <mxCell id="thcZUBoqs5VJvV3hqUbI-13" value="" style="edgeStyle=none;html=1;" parent="1" source="thcZUBoqs5VJvV3hqUbI-14" target="thcZUBoqs5VJvV3hqUbI-15" edge="1">
                    <mxGeometry relative="1" as="geometry"/>
                </mxCell>
                <mxCell id="thcZUBoqs5VJvV3hqUbI-18" style="edgeStyle=none;html=1;entryX=0.5;entryY=0;entryDx=0;entryDy=0;" parent="1" source="thcZUBoqs5VJvV3hqUbI-14" target="thcZUBoqs5VJvV3hqUbI-12" edge="1">
                    <mxGeometry relative="1" as="geometry"/>
                </mxCell>
                <mxCell id="thcZUBoqs5VJvV3hqUbI-14" value="if b &amp;gt;= a&lt;br&gt;&amp;amp;&amp;amp;&lt;br&gt;b &amp;gt;= c" style="rhombus;whiteSpace=wrap;html=1;" parent="1" vertex="1">
                    <mxGeometry x="400" y="420" width="80" height="100" as="geometry"/>
                </mxCell>
                <mxCell id="MhG5IHelKEbIozkXq4xq-9" style="edgeStyle=none;html=1;entryX=1;entryY=0;entryDx=0;entryDy=0;" parent="1" source="thcZUBoqs5VJvV3hqUbI-15" target="MhG5IHelKEbIozkXq4xq-6" edge="1">
                    <mxGeometry relative="1" as="geometry"/>
                </mxCell>
                <mxCell id="thcZUBoqs5VJvV3hqUbI-15" value="b is max" style="shape=document;whiteSpace=wrap;html=1;boundedLbl=1;" parent="1" vertex="1">
                    <mxGeometry x="550" y="430" width="120" height="80" as="geometry"/>
                </mxCell>
                <mxCell id="MhG5IHelKEbIozkXq4xq-1" value="true" style="text;html=1;align=center;verticalAlign=middle;resizable=0;points=[];autosize=1;strokeColor=none;fillColor=none;" parent="1" vertex="1">
                    <mxGeometry x="480" y="295" width="40" height="30" as="geometry"/>
                </mxCell>
                <mxCell id="MhG5IHelKEbIozkXq4xq-2" value="true" style="text;html=1;align=center;verticalAlign=middle;resizable=0;points=[];autosize=1;strokeColor=none;fillColor=none;" parent="1" vertex="1">
                    <mxGeometry x="490" y="430" width="40" height="30" as="geometry"/>
                </mxCell>
                <mxCell id="MhG5IHelKEbIozkXq4xq-4" value="false" style="text;html=1;align=center;verticalAlign=middle;resizable=0;points=[];autosize=1;strokeColor=none;fillColor=none;" parent="1" vertex="1">
                    <mxGeometry x="440" y="380" width="50" height="30" as="geometry"/>
                </mxCell>
                <mxCell id="MhG5IHelKEbIozkXq4xq-5" value="false" style="text;html=1;align=center;verticalAlign=middle;resizable=0;points=[];autosize=1;strokeColor=none;fillColor=none;" parent="1" vertex="1">
                    <mxGeometry x="440" y="520" width="50" height="30" as="geometry"/>
                </mxCell>
                <mxCell id="MhG5IHelKEbIozkXq4xq-6" value="END" style="ellipse;whiteSpace=wrap;html=1;" parent="1" vertex="1">
                    <mxGeometry x="380" y="660" width="120" height="80" as="geometry"/>
                </mxCell>
            </root>
        </mxGraphModel>
    </diagram>
    <diagram id="EvtzFzCWJJHtgpkQGG6X" name="6">
        <mxGraphModel dx="530" dy="366" grid="1" gridSize="10" guides="1" tooltips="1" connect="1" arrows="1" fold="1" page="1" pageScale="1" pageWidth="827" pageHeight="1169" math="0" shadow="0">
            <root>
                <mxCell id="0"/>
                <mxCell id="1" parent="0"/>
                <mxCell id="c9tWKj-pZfohX3ef_LbU-6" value="" style="edgeStyle=none;html=1;" edge="1" parent="1" source="c9tWKj-pZfohX3ef_LbU-1" target="c9tWKj-pZfohX3ef_LbU-5">
                    <mxGeometry relative="1" as="geometry"/>
                </mxCell>
                <mxCell id="c9tWKj-pZfohX3ef_LbU-1" value="START" style="ellipse;whiteSpace=wrap;html=1;" vertex="1" parent="1">
                    <mxGeometry x="210" y="150" width="120" height="80" as="geometry"/>
                </mxCell>
                <mxCell id="c9tWKj-pZfohX3ef_LbU-4" value="" style="edgeStyle=none;html=1;" edge="1" parent="1" source="c9tWKj-pZfohX3ef_LbU-2" target="c9tWKj-pZfohX3ef_LbU-5">
                    <mxGeometry relative="1" as="geometry">
                        <mxPoint x="270" y="390" as="targetPoint"/>
                    </mxGeometry>
                </mxCell>
                <mxCell id="c9tWKj-pZfohX3ef_LbU-2" value="input number" style="shape=parallelogram;perimeter=parallelogramPerimeter;whiteSpace=wrap;html=1;fixedSize=1;" vertex="1" parent="1">
                    <mxGeometry x="210" y="250" width="120" height="60" as="geometry"/>
                </mxCell>
                <mxCell id="c9tWKj-pZfohX3ef_LbU-8" value="" style="edgeStyle=none;html=1;" edge="1" parent="1" source="c9tWKj-pZfohX3ef_LbU-5" target="c9tWKj-pZfohX3ef_LbU-7">
                    <mxGeometry relative="1" as="geometry"/>
                </mxCell>
                <mxCell id="c9tWKj-pZfohX3ef_LbU-5" value="if number % 2 = 0" style="rhombus;whiteSpace=wrap;html=1;" vertex="1" parent="1">
                    <mxGeometry x="215" y="340" width="110" height="90" as="geometry"/>
                </mxCell>
                <mxCell id="c9tWKj-pZfohX3ef_LbU-7" value="number is even" style="shape=document;whiteSpace=wrap;html=1;boundedLbl=1;" vertex="1" parent="1">
                    <mxGeometry x="210" y="470" width="120" height="80" as="geometry"/>
                </mxCell>
                <mxCell id="c9tWKj-pZfohX3ef_LbU-9" value="true" style="text;html=1;align=center;verticalAlign=middle;resizable=0;points=[];autosize=1;strokeColor=none;fillColor=none;" vertex="1" parent="1">
                    <mxGeometry x="270" y="430" width="40" height="30" as="geometry"/>
                </mxCell>
            </root>
        </mxGraphModel>
    </diagram>
    <diagram id="mFLeHnUH8ki5RjKrj16I" name="7_While">
        <mxGraphModel dx="643" dy="476" grid="1" gridSize="10" guides="1" tooltips="1" connect="1" arrows="1" fold="1" page="1" pageScale="1" pageWidth="827" pageHeight="1169" math="0" shadow="0">
            <root>
                <mxCell id="0"/>
                <mxCell id="1" parent="0"/>
                <mxCell id="XP6QyN0b6c5FA--avGPj-3" value="" style="edgeStyle=none;html=1;" parent="1" source="XP6QyN0b6c5FA--avGPj-1" target="XP6QyN0b6c5FA--avGPj-2" edge="1">
                    <mxGeometry relative="1" as="geometry"/>
                </mxCell>
                <mxCell id="XP6QyN0b6c5FA--avGPj-1" value="START" style="ellipse;whiteSpace=wrap;html=1;" parent="1" vertex="1">
                    <mxGeometry x="210" y="150" width="120" height="80" as="geometry"/>
                </mxCell>
                <mxCell id="XP6QyN0b6c5FA--avGPj-5" value="" style="edgeStyle=none;html=1;" parent="1" source="XP6QyN0b6c5FA--avGPj-2" target="XP6QyN0b6c5FA--avGPj-4" edge="1">
                    <mxGeometry relative="1" as="geometry"/>
                </mxCell>
                <mxCell id="XP6QyN0b6c5FA--avGPj-2" value="input N" style="shape=parallelogram;perimeter=parallelogramPerimeter;whiteSpace=wrap;html=1;fixedSize=1;" parent="1" vertex="1">
                    <mxGeometry x="210" y="260" width="120" height="60" as="geometry"/>
                </mxCell>
                <mxCell id="XP6QyN0b6c5FA--avGPj-7" value="" style="edgeStyle=none;html=1;" parent="1" source="XP6QyN0b6c5FA--avGPj-4" target="XP6QyN0b6c5FA--avGPj-6" edge="1">
                    <mxGeometry relative="1" as="geometry"/>
                </mxCell>
                <mxCell id="XP6QyN0b6c5FA--avGPj-4" value="int i = - N" style="whiteSpace=wrap;html=1;" parent="1" vertex="1">
                    <mxGeometry x="210" y="350" width="120" height="60" as="geometry"/>
                </mxCell>
                <mxCell id="XP6QyN0b6c5FA--avGPj-11" value="" style="edgeStyle=none;html=1;startArrow=none;" parent="1" target="XP6QyN0b6c5FA--avGPj-10" edge="1">
                    <mxGeometry relative="1" as="geometry">
                        <mxPoint x="270" y="630" as="sourcePoint"/>
                    </mxGeometry>
                </mxCell>
                <mxCell id="XP6QyN0b6c5FA--avGPj-19" style="edgeStyle=none;html=1;entryX=0.5;entryY=0;entryDx=0;entryDy=0;" parent="1" source="XP6QyN0b6c5FA--avGPj-6" target="XP6QyN0b6c5FA--avGPj-18" edge="1">
                    <mxGeometry relative="1" as="geometry">
                        <Array as="points">
                            <mxPoint x="400" y="480"/>
                            <mxPoint x="400" y="800"/>
                            <mxPoint x="270" y="800"/>
                        </Array>
                    </mxGeometry>
                </mxCell>
                <mxCell id="XP6QyN0b6c5FA--avGPj-6" value="while ( i &amp;lt;= N)" style="rhombus;whiteSpace=wrap;html=1;" parent="1" vertex="1">
                    <mxGeometry x="220" y="440" width="100" height="80" as="geometry"/>
                </mxCell>
                <mxCell id="XP6QyN0b6c5FA--avGPj-13" style="edgeStyle=none;html=1;entryX=0;entryY=0.5;entryDx=0;entryDy=0;" parent="1" source="XP6QyN0b6c5FA--avGPj-10" target="XP6QyN0b6c5FA--avGPj-6" edge="1">
                    <mxGeometry relative="1" as="geometry">
                        <Array as="points">
                            <mxPoint x="160" y="730"/>
                            <mxPoint x="160" y="585"/>
                            <mxPoint x="160" y="480"/>
                        </Array>
                    </mxGeometry>
                </mxCell>
                <mxCell id="XP6QyN0b6c5FA--avGPj-10" value="i = i + 1" style="whiteSpace=wrap;html=1;" parent="1" vertex="1">
                    <mxGeometry x="210" y="700" width="120" height="60" as="geometry"/>
                </mxCell>
                <mxCell id="XP6QyN0b6c5FA--avGPj-12" value="true" style="text;html=1;align=center;verticalAlign=middle;resizable=0;points=[];autosize=1;strokeColor=none;fillColor=none;" parent="1" vertex="1">
                    <mxGeometry x="270" y="520" width="40" height="30" as="geometry"/>
                </mxCell>
                <mxCell id="XP6QyN0b6c5FA--avGPj-14" value="&lt;b&gt;Цикл While()&lt;/b&gt;" style="text;html=1;align=center;verticalAlign=middle;resizable=0;points=[];autosize=1;strokeColor=none;fillColor=none;" parent="1" vertex="1">
                    <mxGeometry x="220" y="110" width="100" height="30" as="geometry"/>
                </mxCell>
                <mxCell id="XP6QyN0b6c5FA--avGPj-16" value="" style="edgeStyle=none;html=1;endArrow=none;entryX=0.5;entryY=0;entryDx=0;entryDy=0;" parent="1" source="XP6QyN0b6c5FA--avGPj-6" target="XP6QyN0b6c5FA--avGPj-17" edge="1">
                    <mxGeometry relative="1" as="geometry">
                        <mxPoint x="270" y="520" as="sourcePoint"/>
                        <mxPoint x="270" y="570" as="targetPoint"/>
                    </mxGeometry>
                </mxCell>
                <mxCell id="XP6QyN0b6c5FA--avGPj-17" value="i" style="shape=document;whiteSpace=wrap;html=1;boundedLbl=1;" parent="1" vertex="1">
                    <mxGeometry x="210" y="560" width="120" height="80" as="geometry"/>
                </mxCell>
                <mxCell id="XP6QyN0b6c5FA--avGPj-18" value="END" style="ellipse;whiteSpace=wrap;html=1;" parent="1" vertex="1">
                    <mxGeometry x="210" y="860" width="120" height="80" as="geometry"/>
                </mxCell>
                <mxCell id="XP6QyN0b6c5FA--avGPj-20" value="false" style="text;html=1;align=center;verticalAlign=middle;resizable=0;points=[];autosize=1;strokeColor=none;fillColor=none;" parent="1" vertex="1">
                    <mxGeometry x="325" y="445" width="50" height="30" as="geometry"/>
                </mxCell>
            </root>
        </mxGraphModel>
    </diagram>
    <diagram id="XMtice0OeDJnqn81I9KG" name="7_do_While">
        <mxGraphModel dx="643" dy="476" grid="1" gridSize="10" guides="1" tooltips="1" connect="1" arrows="1" fold="1" page="1" pageScale="1" pageWidth="827" pageHeight="1169" math="0" shadow="0">
            <root>
                <mxCell id="0"/>
                <mxCell id="1" parent="0"/>
                <mxCell id="W5f8yeGQcnOBEaOAe0kR-1" value="" style="edgeStyle=none;html=1;" parent="1" source="W5f8yeGQcnOBEaOAe0kR-2" target="W5f8yeGQcnOBEaOAe0kR-4" edge="1">
                    <mxGeometry relative="1" as="geometry"/>
                </mxCell>
                <mxCell id="W5f8yeGQcnOBEaOAe0kR-2" value="START" style="ellipse;whiteSpace=wrap;html=1;" parent="1" vertex="1">
                    <mxGeometry x="210" y="150" width="120" height="80" as="geometry"/>
                </mxCell>
                <mxCell id="W5f8yeGQcnOBEaOAe0kR-3" value="" style="edgeStyle=none;html=1;" parent="1" source="W5f8yeGQcnOBEaOAe0kR-4" target="W5f8yeGQcnOBEaOAe0kR-6" edge="1">
                    <mxGeometry relative="1" as="geometry"/>
                </mxCell>
                <mxCell id="W5f8yeGQcnOBEaOAe0kR-4" value="input N" style="shape=parallelogram;perimeter=parallelogramPerimeter;whiteSpace=wrap;html=1;fixedSize=1;" parent="1" vertex="1">
                    <mxGeometry x="210" y="260" width="120" height="60" as="geometry"/>
                </mxCell>
                <mxCell id="W5f8yeGQcnOBEaOAe0kR-5" value="" style="edgeStyle=none;html=1;" parent="1" target="W5f8yeGQcnOBEaOAe0kR-9" edge="1">
                    <mxGeometry relative="1" as="geometry">
                        <mxPoint x="270" y="620" as="sourcePoint"/>
                    </mxGeometry>
                </mxCell>
                <mxCell id="W5f8yeGQcnOBEaOAe0kR-18" style="edgeStyle=none;html=1;entryX=0.5;entryY=0;entryDx=0;entryDy=0;" parent="1" source="W5f8yeGQcnOBEaOAe0kR-6" target="W5f8yeGQcnOBEaOAe0kR-15" edge="1">
                    <mxGeometry relative="1" as="geometry"/>
                </mxCell>
                <mxCell id="W5f8yeGQcnOBEaOAe0kR-6" value="int i = - N" style="whiteSpace=wrap;html=1;" parent="1" vertex="1">
                    <mxGeometry x="210" y="350" width="120" height="60" as="geometry"/>
                </mxCell>
                <mxCell id="W5f8yeGQcnOBEaOAe0kR-7" value="" style="edgeStyle=none;html=1;startArrow=none;" parent="1" target="W5f8yeGQcnOBEaOAe0kR-11" edge="1">
                    <mxGeometry relative="1" as="geometry">
                        <mxPoint x="270" y="500" as="sourcePoint"/>
                    </mxGeometry>
                </mxCell>
                <mxCell id="W5f8yeGQcnOBEaOAe0kR-8" style="edgeStyle=none;html=1;entryX=0.5;entryY=0;entryDx=0;entryDy=0;" parent="1" source="W5f8yeGQcnOBEaOAe0kR-9" target="W5f8yeGQcnOBEaOAe0kR-16" edge="1">
                    <mxGeometry relative="1" as="geometry">
                        <Array as="points">
                            <mxPoint x="400" y="700"/>
                            <mxPoint x="400" y="760"/>
                            <mxPoint x="270" y="760"/>
                        </Array>
                    </mxGeometry>
                </mxCell>
                <mxCell id="W5f8yeGQcnOBEaOAe0kR-19" style="edgeStyle=none;html=1;" parent="1" source="W5f8yeGQcnOBEaOAe0kR-9" edge="1">
                    <mxGeometry relative="1" as="geometry">
                        <mxPoint x="270" y="430" as="targetPoint"/>
                        <Array as="points">
                            <mxPoint x="160" y="700"/>
                            <mxPoint x="160" y="430"/>
                        </Array>
                    </mxGeometry>
                </mxCell>
                <mxCell id="W5f8yeGQcnOBEaOAe0kR-9" value="while ( i &amp;lt;= N)" style="rhombus;whiteSpace=wrap;html=1;" parent="1" vertex="1">
                    <mxGeometry x="220" y="660" width="100" height="80" as="geometry"/>
                </mxCell>
                <mxCell id="W5f8yeGQcnOBEaOAe0kR-11" value="i = i + 1" style="whiteSpace=wrap;html=1;" parent="1" vertex="1">
                    <mxGeometry x="210" y="570" width="120" height="60" as="geometry"/>
                </mxCell>
                <mxCell id="W5f8yeGQcnOBEaOAe0kR-12" value="true" style="text;html=1;align=center;verticalAlign=middle;resizable=0;points=[];autosize=1;strokeColor=none;fillColor=none;" parent="1" vertex="1">
                    <mxGeometry x="110" y="610" width="40" height="30" as="geometry"/>
                </mxCell>
                <mxCell id="W5f8yeGQcnOBEaOAe0kR-13" value="&lt;b&gt;Цикл do {} While()&lt;/b&gt;" style="text;html=1;align=center;verticalAlign=middle;resizable=0;points=[];autosize=1;strokeColor=none;fillColor=none;" parent="1" vertex="1">
                    <mxGeometry x="205" y="110" width="130" height="30" as="geometry"/>
                </mxCell>
                <mxCell id="W5f8yeGQcnOBEaOAe0kR-15" value="i" style="shape=document;whiteSpace=wrap;html=1;boundedLbl=1;" parent="1" vertex="1">
                    <mxGeometry x="210" y="460" width="120" height="80" as="geometry"/>
                </mxCell>
                <mxCell id="W5f8yeGQcnOBEaOAe0kR-16" value="END" style="ellipse;whiteSpace=wrap;html=1;" parent="1" vertex="1">
                    <mxGeometry x="210" y="820" width="120" height="80" as="geometry"/>
                </mxCell>
                <mxCell id="W5f8yeGQcnOBEaOAe0kR-17" value="false" style="text;html=1;align=center;verticalAlign=middle;resizable=0;points=[];autosize=1;strokeColor=none;fillColor=none;" parent="1" vertex="1">
                    <mxGeometry x="325" y="655" width="50" height="30" as="geometry"/>
                </mxCell>
            </root>
        </mxGraphModel>
    </diagram>
    <diagram id="XZIqRngsxuFvwpLZZ8wQ" name="7_for">
        <mxGraphModel dx="643" dy="476" grid="1" gridSize="10" guides="1" tooltips="1" connect="1" arrows="1" fold="1" page="1" pageScale="1" pageWidth="827" pageHeight="1169" math="0" shadow="0">
            <root>
                <mxCell id="0"/>
                <mxCell id="1" parent="0"/>
                <mxCell id="PCDWndyLIUDae2IzvEyx-1" value="" style="edgeStyle=none;html=1;" parent="1" source="PCDWndyLIUDae2IzvEyx-2" target="PCDWndyLIUDae2IzvEyx-4" edge="1">
                    <mxGeometry relative="1" as="geometry"/>
                </mxCell>
                <mxCell id="PCDWndyLIUDae2IzvEyx-2" value="START" style="ellipse;whiteSpace=wrap;html=1;" parent="1" vertex="1">
                    <mxGeometry x="210" y="150" width="120" height="80" as="geometry"/>
                </mxCell>
                <mxCell id="PCDWndyLIUDae2IzvEyx-3" value="" style="edgeStyle=none;html=1;" parent="1" source="PCDWndyLIUDae2IzvEyx-4" target="PCDWndyLIUDae2IzvEyx-6" edge="1">
                    <mxGeometry relative="1" as="geometry"/>
                </mxCell>
                <mxCell id="PCDWndyLIUDae2IzvEyx-4" value="input N" style="shape=parallelogram;perimeter=parallelogramPerimeter;whiteSpace=wrap;html=1;fixedSize=1;" parent="1" vertex="1">
                    <mxGeometry x="210" y="260" width="120" height="60" as="geometry"/>
                </mxCell>
                <mxCell id="PCDWndyLIUDae2IzvEyx-5" value="" style="edgeStyle=none;html=1;" parent="1" source="PCDWndyLIUDae2IzvEyx-6" target="PCDWndyLIUDae2IzvEyx-9" edge="1">
                    <mxGeometry relative="1" as="geometry"/>
                </mxCell>
                <mxCell id="PCDWndyLIUDae2IzvEyx-6" value="int i = - N" style="whiteSpace=wrap;html=1;" parent="1" vertex="1">
                    <mxGeometry x="210" y="350" width="120" height="60" as="geometry"/>
                </mxCell>
                <mxCell id="PCDWndyLIUDae2IzvEyx-7" value="" style="edgeStyle=none;html=1;startArrow=none;" parent="1" target="PCDWndyLIUDae2IzvEyx-11" edge="1">
                    <mxGeometry relative="1" as="geometry">
                        <mxPoint x="270" y="630" as="sourcePoint"/>
                    </mxGeometry>
                </mxCell>
                <mxCell id="PCDWndyLIUDae2IzvEyx-8" style="edgeStyle=none;html=1;entryX=0.5;entryY=0;entryDx=0;entryDy=0;" parent="1" source="PCDWndyLIUDae2IzvEyx-9" target="PCDWndyLIUDae2IzvEyx-16" edge="1">
                    <mxGeometry relative="1" as="geometry">
                        <Array as="points">
                            <mxPoint x="400" y="480"/>
                            <mxPoint x="400" y="800"/>
                            <mxPoint x="270" y="800"/>
                        </Array>
                    </mxGeometry>
                </mxCell>
                <mxCell id="PCDWndyLIUDae2IzvEyx-9" value="while ( i &amp;lt;= N)" style="rhombus;whiteSpace=wrap;html=1;" parent="1" vertex="1">
                    <mxGeometry x="220" y="440" width="100" height="80" as="geometry"/>
                </mxCell>
                <mxCell id="PCDWndyLIUDae2IzvEyx-10" style="edgeStyle=none;html=1;entryX=0;entryY=0.5;entryDx=0;entryDy=0;" parent="1" source="PCDWndyLIUDae2IzvEyx-11" target="PCDWndyLIUDae2IzvEyx-9" edge="1">
                    <mxGeometry relative="1" as="geometry">
                        <Array as="points">
                            <mxPoint x="160" y="730"/>
                            <mxPoint x="160" y="585"/>
                            <mxPoint x="160" y="480"/>
                        </Array>
                    </mxGeometry>
                </mxCell>
                <mxCell id="PCDWndyLIUDae2IzvEyx-11" value="i = i + 1" style="whiteSpace=wrap;html=1;" parent="1" vertex="1">
                    <mxGeometry x="210" y="700" width="120" height="60" as="geometry"/>
                </mxCell>
                <mxCell id="PCDWndyLIUDae2IzvEyx-12" value="true" style="text;html=1;align=center;verticalAlign=middle;resizable=0;points=[];autosize=1;strokeColor=none;fillColor=none;" parent="1" vertex="1">
                    <mxGeometry x="270" y="520" width="40" height="30" as="geometry"/>
                </mxCell>
                <mxCell id="PCDWndyLIUDae2IzvEyx-13" value="&lt;b&gt;Цикл for()&lt;/b&gt;" style="text;html=1;align=center;verticalAlign=middle;resizable=0;points=[];autosize=1;strokeColor=none;fillColor=none;" parent="1" vertex="1">
                    <mxGeometry x="230" y="110" width="80" height="30" as="geometry"/>
                </mxCell>
                <mxCell id="PCDWndyLIUDae2IzvEyx-14" value="" style="edgeStyle=none;html=1;endArrow=none;entryX=0.5;entryY=0;entryDx=0;entryDy=0;" parent="1" source="PCDWndyLIUDae2IzvEyx-9" target="PCDWndyLIUDae2IzvEyx-15" edge="1">
                    <mxGeometry relative="1" as="geometry">
                        <mxPoint x="270" y="520" as="sourcePoint"/>
                        <mxPoint x="270" y="570" as="targetPoint"/>
                    </mxGeometry>
                </mxCell>
                <mxCell id="PCDWndyLIUDae2IzvEyx-15" value="i" style="shape=document;whiteSpace=wrap;html=1;boundedLbl=1;" parent="1" vertex="1">
                    <mxGeometry x="210" y="560" width="120" height="80" as="geometry"/>
                </mxCell>
                <mxCell id="PCDWndyLIUDae2IzvEyx-16" value="END" style="ellipse;whiteSpace=wrap;html=1;" parent="1" vertex="1">
                    <mxGeometry x="210" y="860" width="120" height="80" as="geometry"/>
                </mxCell>
                <mxCell id="PCDWndyLIUDae2IzvEyx-17" value="false" style="text;html=1;align=center;verticalAlign=middle;resizable=0;points=[];autosize=1;strokeColor=none;fillColor=none;" parent="1" vertex="1">
                    <mxGeometry x="325" y="445" width="50" height="30" as="geometry"/>
                </mxCell>
            </root>
        </mxGraphModel>
    </diagram>
    <diagram id="RYGdvyCHzwDHEW81Z-85" name="№INT">
        <mxGraphModel dx="640" dy="476" grid="1" gridSize="10" guides="1" tooltips="1" connect="1" arrows="1" fold="1" page="1" pageScale="1" pageWidth="827" pageHeight="1169" math="0" shadow="0">
            <root>
                <mxCell id="0"/>
                <mxCell id="1" parent="0"/>
                <mxCell id="gM-krX7Vxv2HvfHT-jZv-3" value="" style="edgeStyle=none;html=1;" parent="1" source="gM-krX7Vxv2HvfHT-jZv-1" target="gM-krX7Vxv2HvfHT-jZv-2" edge="1">
                    <mxGeometry relative="1" as="geometry"/>
                </mxCell>
                <mxCell id="gM-krX7Vxv2HvfHT-jZv-1" value="START" style="ellipse;whiteSpace=wrap;html=1;" parent="1" vertex="1">
                    <mxGeometry x="381" y="120" width="120" height="80" as="geometry"/>
                </mxCell>
                <mxCell id="gM-krX7Vxv2HvfHT-jZv-5" value="" style="edgeStyle=none;html=1;" parent="1" source="gM-krX7Vxv2HvfHT-jZv-2" target="gM-krX7Vxv2HvfHT-jZv-4" edge="1">
                    <mxGeometry relative="1" as="geometry"/>
                </mxCell>
                <mxCell id="gM-krX7Vxv2HvfHT-jZv-2" value="input String str" style="shape=parallelogram;perimeter=parallelogramPerimeter;whiteSpace=wrap;html=1;fixedSize=1;" parent="1" vertex="1">
                    <mxGeometry x="381" y="230" width="120" height="60" as="geometry"/>
                </mxCell>
                <mxCell id="gM-krX7Vxv2HvfHT-jZv-8" value="" style="edgeStyle=none;html=1;" parent="1" source="gM-krX7Vxv2HvfHT-jZv-4" target="gM-krX7Vxv2HvfHT-jZv-7" edge="1">
                    <mxGeometry relative="1" as="geometry"/>
                </mxCell>
                <mxCell id="gM-krX7Vxv2HvfHT-jZv-4" value="i = str.lengh() - 1" style="shape=parallelogram;perimeter=parallelogramPerimeter;whiteSpace=wrap;html=1;fixedSize=1;" parent="1" vertex="1">
                    <mxGeometry x="381" y="320" width="120" height="60" as="geometry"/>
                </mxCell>
                <mxCell id="gM-krX7Vxv2HvfHT-jZv-10" value="" style="edgeStyle=none;html=1;entryX=0.5;entryY=0;entryDx=0;entryDy=0;" parent="1" source="gM-krX7Vxv2HvfHT-jZv-7" target="RfQeiF2Z6c54fEDoMjFJ-5" edge="1">
                    <mxGeometry relative="1" as="geometry">
                        <mxPoint x="441" y="530" as="targetPoint"/>
                    </mxGeometry>
                </mxCell>
                <mxCell id="RfQeiF2Z6c54fEDoMjFJ-3" style="edgeStyle=none;html=1;" parent="1" source="gM-krX7Vxv2HvfHT-jZv-7" edge="1">
                    <mxGeometry relative="1" as="geometry">
                        <mxPoint x="440" y="760" as="targetPoint"/>
                        <Array as="points">
                            <mxPoint x="560" y="455"/>
                            <mxPoint x="560" y="720"/>
                            <mxPoint x="441" y="720"/>
                        </Array>
                    </mxGeometry>
                </mxCell>
                <mxCell id="gM-krX7Vxv2HvfHT-jZv-7" value="if i &amp;gt;= 0" style="rhombus;whiteSpace=wrap;html=1;" parent="1" vertex="1">
                    <mxGeometry x="366.5" y="410" width="149" height="90" as="geometry"/>
                </mxCell>
                <mxCell id="gM-krX7Vxv2HvfHT-jZv-13" value="" style="edgeStyle=none;html=1;exitX=0.506;exitY=0.858;exitDx=0;exitDy=0;exitPerimeter=0;" parent="1" source="RfQeiF2Z6c54fEDoMjFJ-5" target="gM-krX7Vxv2HvfHT-jZv-12" edge="1">
                    <mxGeometry relative="1" as="geometry">
                        <mxPoint x="441" y="590" as="sourcePoint"/>
                    </mxGeometry>
                </mxCell>
                <mxCell id="gM-krX7Vxv2HvfHT-jZv-11" value="true" style="text;html=1;align=center;verticalAlign=middle;resizable=0;points=[];autosize=1;strokeColor=none;fillColor=none;" parent="1" vertex="1">
                    <mxGeometry x="440" y="500" width="40" height="30" as="geometry"/>
                </mxCell>
                <mxCell id="RfQeiF2Z6c54fEDoMjFJ-1" style="edgeStyle=none;html=1;entryX=0.5;entryY=0;entryDx=0;entryDy=0;" parent="1" source="gM-krX7Vxv2HvfHT-jZv-12" target="gM-krX7Vxv2HvfHT-jZv-7" edge="1">
                    <mxGeometry relative="1" as="geometry">
                        <Array as="points">
                            <mxPoint x="340" y="650"/>
                            <mxPoint x="340" y="410"/>
                        </Array>
                    </mxGeometry>
                </mxCell>
                <mxCell id="gM-krX7Vxv2HvfHT-jZv-12" value="i--" style="whiteSpace=wrap;html=1;" parent="1" vertex="1">
                    <mxGeometry x="381" y="640" width="120" height="60" as="geometry"/>
                </mxCell>
                <mxCell id="RfQeiF2Z6c54fEDoMjFJ-2" value="END" style="ellipse;whiteSpace=wrap;html=1;" parent="1" vertex="1">
                    <mxGeometry x="381" y="760" width="120" height="80" as="geometry"/>
                </mxCell>
                <mxCell id="RfQeiF2Z6c54fEDoMjFJ-4" value="false" style="text;html=1;align=center;verticalAlign=middle;resizable=0;points=[];autosize=1;strokeColor=none;fillColor=none;" parent="1" vertex="1">
                    <mxGeometry x="505" y="425" width="50" height="30" as="geometry"/>
                </mxCell>
                <mxCell id="RfQeiF2Z6c54fEDoMjFJ-5" value="str(i)" style="shape=document;whiteSpace=wrap;html=1;boundedLbl=1;" parent="1" vertex="1">
                    <mxGeometry x="381" y="540" width="120" height="80" as="geometry"/>
                </mxCell>
            </root>
        </mxGraphModel>
    </diagram>
    <diagram id="YeO25LftmcHGWS5jI6Wm" name="8_1">
        <mxGraphModel dx="396" dy="295" grid="1" gridSize="10" guides="1" tooltips="1" connect="1" arrows="1" fold="1" page="1" pageScale="1" pageWidth="827" pageHeight="1169" math="0" shadow="0">
            <root>
                <mxCell id="0"/>
                <mxCell id="1" parent="0"/>
                <mxCell id="cuHIhfOdhhZnBo2-Uw3R-3" value="" style="edgeStyle=none;html=1;" edge="1" parent="1" source="cuHIhfOdhhZnBo2-Uw3R-1" target="cuHIhfOdhhZnBo2-Uw3R-2">
                    <mxGeometry relative="1" as="geometry"/>
                </mxCell>
                <mxCell id="cuHIhfOdhhZnBo2-Uw3R-1" value="START" style="ellipse;whiteSpace=wrap;html=1;" vertex="1" parent="1">
                    <mxGeometry x="140" y="40" width="120" height="80" as="geometry"/>
                </mxCell>
                <mxCell id="cuHIhfOdhhZnBo2-Uw3R-5" value="" style="edgeStyle=none;html=1;" edge="1" parent="1" source="cuHIhfOdhhZnBo2-Uw3R-2" target="cuHIhfOdhhZnBo2-Uw3R-4">
                    <mxGeometry relative="1" as="geometry"/>
                </mxCell>
                <mxCell id="cuHIhfOdhhZnBo2-Uw3R-2" value="input N" style="shape=parallelogram;perimeter=parallelogramPerimeter;whiteSpace=wrap;html=1;fixedSize=1;" vertex="1" parent="1">
                    <mxGeometry x="140" y="140" width="120" height="60" as="geometry"/>
                </mxCell>
                <mxCell id="cuHIhfOdhhZnBo2-Uw3R-7" value="" style="edgeStyle=none;html=1;" edge="1" parent="1" source="cuHIhfOdhhZnBo2-Uw3R-4" target="cuHIhfOdhhZnBo2-Uw3R-6">
                    <mxGeometry relative="1" as="geometry"/>
                </mxCell>
                <mxCell id="cuHIhfOdhhZnBo2-Uw3R-4" value="int i = 1" style="whiteSpace=wrap;html=1;" vertex="1" parent="1">
                    <mxGeometry x="140" y="220" width="120" height="60" as="geometry"/>
                </mxCell>
                <mxCell id="cuHIhfOdhhZnBo2-Uw3R-9" value="" style="edgeStyle=none;html=1;entryX=0.5;entryY=0;entryDx=0;entryDy=0;" edge="1" parent="1" source="cuHIhfOdhhZnBo2-Uw3R-6">
                    <mxGeometry relative="1" as="geometry">
                        <mxPoint x="200" y="400" as="targetPoint"/>
                    </mxGeometry>
                </mxCell>
                <mxCell id="cuHIhfOdhhZnBo2-Uw3R-22" style="edgeStyle=none;html=1;" edge="1" parent="1" source="cuHIhfOdhhZnBo2-Uw3R-6">
                    <mxGeometry relative="1" as="geometry">
                        <mxPoint x="200" y="710" as="targetPoint"/>
                        <Array as="points">
                            <mxPoint x="320" y="340"/>
                            <mxPoint x="320" y="560"/>
                            <mxPoint x="320" y="680"/>
                            <mxPoint x="200" y="680"/>
                        </Array>
                    </mxGeometry>
                </mxCell>
                <mxCell id="cuHIhfOdhhZnBo2-Uw3R-6" value="if i &amp;lt;= N" style="rhombus;whiteSpace=wrap;html=1;" vertex="1" parent="1">
                    <mxGeometry x="160" y="300" width="80" height="80" as="geometry"/>
                </mxCell>
                <mxCell id="cuHIhfOdhhZnBo2-Uw3R-12" value="" style="edgeStyle=none;html=1;" edge="1" parent="1" source="cuHIhfOdhhZnBo2-Uw3R-10">
                    <mxGeometry relative="1" as="geometry">
                        <mxPoint x="213.09090909090912" y="400" as="targetPoint"/>
                    </mxGeometry>
                </mxCell>
                <mxCell id="cuHIhfOdhhZnBo2-Uw3R-10" value="true" style="text;html=1;align=center;verticalAlign=middle;resizable=0;points=[];autosize=1;strokeColor=none;fillColor=none;" vertex="1" parent="1">
                    <mxGeometry x="198" y="370" width="40" height="30" as="geometry"/>
                </mxCell>
                <mxCell id="cuHIhfOdhhZnBo2-Uw3R-15" value="" style="edgeStyle=none;html=1;" edge="1" parent="1" source="cuHIhfOdhhZnBo2-Uw3R-13" target="cuHIhfOdhhZnBo2-Uw3R-14">
                    <mxGeometry relative="1" as="geometry"/>
                </mxCell>
                <mxCell id="cuHIhfOdhhZnBo2-Uw3R-20" style="edgeStyle=none;html=1;entryX=1;entryY=0.5;entryDx=0;entryDy=0;" edge="1" parent="1" source="cuHIhfOdhhZnBo2-Uw3R-13" target="cuHIhfOdhhZnBo2-Uw3R-18">
                    <mxGeometry relative="1" as="geometry">
                        <Array as="points">
                            <mxPoint x="280" y="440"/>
                            <mxPoint x="280" y="630"/>
                        </Array>
                    </mxGeometry>
                </mxCell>
                <mxCell id="cuHIhfOdhhZnBo2-Uw3R-13" value="if i % 2 = 0&amp;nbsp;" style="rhombus;whiteSpace=wrap;html=1;" vertex="1" parent="1">
                    <mxGeometry x="160" y="400" width="80" height="80" as="geometry"/>
                </mxCell>
                <mxCell id="cuHIhfOdhhZnBo2-Uw3R-16" style="edgeStyle=none;html=1;entryX=0;entryY=0.5;entryDx=0;entryDy=0;exitX=0;exitY=0.5;exitDx=0;exitDy=0;" edge="1" parent="1" source="cuHIhfOdhhZnBo2-Uw3R-18" target="cuHIhfOdhhZnBo2-Uw3R-6">
                    <mxGeometry relative="1" as="geometry">
                        <mxPoint x="120" y="680" as="sourcePoint"/>
                        <Array as="points">
                            <mxPoint x="120" y="630"/>
                            <mxPoint x="120" y="600"/>
                            <mxPoint x="120" y="340"/>
                        </Array>
                    </mxGeometry>
                </mxCell>
                <mxCell id="cuHIhfOdhhZnBo2-Uw3R-19" value="" style="edgeStyle=none;html=1;exitX=0.503;exitY=0.871;exitDx=0;exitDy=0;exitPerimeter=0;" edge="1" parent="1" source="cuHIhfOdhhZnBo2-Uw3R-14" target="cuHIhfOdhhZnBo2-Uw3R-18">
                    <mxGeometry relative="1" as="geometry"/>
                </mxCell>
                <mxCell id="cuHIhfOdhhZnBo2-Uw3R-14" value="i" style="shape=document;whiteSpace=wrap;html=1;boundedLbl=1;" vertex="1" parent="1">
                    <mxGeometry x="140" y="500" width="120" height="80" as="geometry"/>
                </mxCell>
                <mxCell id="cuHIhfOdhhZnBo2-Uw3R-17" value="true" style="text;html=1;align=center;verticalAlign=middle;resizable=0;points=[];autosize=1;strokeColor=none;fillColor=none;" vertex="1" parent="1">
                    <mxGeometry x="198" y="471" width="40" height="30" as="geometry"/>
                </mxCell>
                <mxCell id="cuHIhfOdhhZnBo2-Uw3R-18" value="i ++" style="whiteSpace=wrap;html=1;" vertex="1" parent="1">
                    <mxGeometry x="140" y="600" width="120" height="60" as="geometry"/>
                </mxCell>
                <mxCell id="cuHIhfOdhhZnBo2-Uw3R-21" value="false" style="text;html=1;align=center;verticalAlign=middle;resizable=0;points=[];autosize=1;strokeColor=none;fillColor=none;" vertex="1" parent="1">
                    <mxGeometry x="232" y="417" width="50" height="30" as="geometry"/>
                </mxCell>
                <mxCell id="cuHIhfOdhhZnBo2-Uw3R-23" value="END" style="ellipse;whiteSpace=wrap;html=1;" vertex="1" parent="1">
                    <mxGeometry x="140" y="710.0044580078124" width="120" height="80" as="geometry"/>
                </mxCell>
            </root>
        </mxGraphModel>
    </diagram>
    <diagram id="tXXeUnyxtE_4p395q0Qn" name="8_2">
        <mxGraphModel dx="608" dy="295" grid="1" gridSize="10" guides="1" tooltips="1" connect="1" arrows="1" fold="1" page="1" pageScale="1" pageWidth="827" pageHeight="1169" math="0" shadow="0">
            <root>
                <mxCell id="0"/>
                <mxCell id="1" parent="0"/>
                <mxCell id="QZm6D6RaYYJHGgrteSE7-1" value="" style="edgeStyle=none;html=1;" edge="1" source="QZm6D6RaYYJHGgrteSE7-2" target="QZm6D6RaYYJHGgrteSE7-4" parent="1">
                    <mxGeometry relative="1" as="geometry"/>
                </mxCell>
                <mxCell id="QZm6D6RaYYJHGgrteSE7-2" value="START" style="ellipse;whiteSpace=wrap;html=1;" vertex="1" parent="1">
                    <mxGeometry x="410" y="20" width="120" height="80" as="geometry"/>
                </mxCell>
                <mxCell id="QZm6D6RaYYJHGgrteSE7-3" value="" style="edgeStyle=none;html=1;" edge="1" source="QZm6D6RaYYJHGgrteSE7-4" target="QZm6D6RaYYJHGgrteSE7-6" parent="1">
                    <mxGeometry relative="1" as="geometry"/>
                </mxCell>
                <mxCell id="QZm6D6RaYYJHGgrteSE7-4" value="input N" style="shape=parallelogram;perimeter=parallelogramPerimeter;whiteSpace=wrap;html=1;fixedSize=1;" vertex="1" parent="1">
                    <mxGeometry x="410" y="120" width="120" height="60" as="geometry"/>
                </mxCell>
                <mxCell id="QZm6D6RaYYJHGgrteSE7-5" value="" style="edgeStyle=none;html=1;" edge="1" source="QZm6D6RaYYJHGgrteSE7-6" target="QZm6D6RaYYJHGgrteSE7-9" parent="1">
                    <mxGeometry relative="1" as="geometry"/>
                </mxCell>
                <mxCell id="QZm6D6RaYYJHGgrteSE7-6" value="int i = 2" style="whiteSpace=wrap;html=1;" vertex="1" parent="1">
                    <mxGeometry x="410" y="200" width="120" height="60" as="geometry"/>
                </mxCell>
                <mxCell id="QZm6D6RaYYJHGgrteSE7-7" value="" style="edgeStyle=none;html=1;entryX=0.5;entryY=0;entryDx=0;entryDy=0;" edge="1" source="QZm6D6RaYYJHGgrteSE7-9" parent="1">
                    <mxGeometry relative="1" as="geometry">
                        <mxPoint x="470" y="380" as="targetPoint"/>
                    </mxGeometry>
                </mxCell>
                <mxCell id="QZm6D6RaYYJHGgrteSE7-8" style="edgeStyle=none;html=1;entryX=0.5;entryY=0;entryDx=0;entryDy=0;" edge="1" source="QZm6D6RaYYJHGgrteSE7-9" parent="1" target="QZm6D6RaYYJHGgrteSE7-21">
                    <mxGeometry relative="1" as="geometry">
                        <mxPoint x="470" y="690" as="targetPoint"/>
                        <Array as="points">
                            <mxPoint x="560" y="320"/>
                            <mxPoint x="560" y="560"/>
                            <mxPoint x="470" y="560"/>
                        </Array>
                    </mxGeometry>
                </mxCell>
                <mxCell id="QZm6D6RaYYJHGgrteSE7-9" value="if i &amp;lt;= N" style="rhombus;whiteSpace=wrap;html=1;" vertex="1" parent="1">
                    <mxGeometry x="430" y="280" width="80" height="80" as="geometry"/>
                </mxCell>
                <mxCell id="QZm6D6RaYYJHGgrteSE7-10" value="" style="edgeStyle=none;html=1;" edge="1" source="QZm6D6RaYYJHGgrteSE7-11" parent="1">
                    <mxGeometry relative="1" as="geometry">
                        <mxPoint x="483.0909090909091" y="380" as="targetPoint"/>
                    </mxGeometry>
                </mxCell>
                <mxCell id="QZm6D6RaYYJHGgrteSE7-11" value="true" style="text;html=1;align=center;verticalAlign=middle;resizable=0;points=[];autosize=1;strokeColor=none;fillColor=none;" vertex="1" parent="1">
                    <mxGeometry x="468" y="350" width="40" height="30" as="geometry"/>
                </mxCell>
                <mxCell id="QZm6D6RaYYJHGgrteSE7-12" value="" style="edgeStyle=none;html=1;" edge="1" target="QZm6D6RaYYJHGgrteSE7-17" parent="1">
                    <mxGeometry relative="1" as="geometry">
                        <mxPoint x="470" y="460" as="sourcePoint"/>
                    </mxGeometry>
                </mxCell>
                <mxCell id="QZm6D6RaYYJHGgrteSE7-15" style="edgeStyle=none;html=1;entryX=0;entryY=0.5;entryDx=0;entryDy=0;exitX=0;exitY=0.5;exitDx=0;exitDy=0;" edge="1" source="QZm6D6RaYYJHGgrteSE7-19" target="QZm6D6RaYYJHGgrteSE7-9" parent="1">
                    <mxGeometry relative="1" as="geometry">
                        <mxPoint x="390" y="660" as="sourcePoint"/>
                        <Array as="points">
                            <mxPoint x="390" y="511"/>
                            <mxPoint x="390" y="320"/>
                        </Array>
                    </mxGeometry>
                </mxCell>
                <mxCell id="QZm6D6RaYYJHGgrteSE7-16" value="" style="edgeStyle=none;html=1;exitX=0.503;exitY=0.871;exitDx=0;exitDy=0;exitPerimeter=0;" edge="1" source="QZm6D6RaYYJHGgrteSE7-17" target="QZm6D6RaYYJHGgrteSE7-19" parent="1">
                    <mxGeometry relative="1" as="geometry"/>
                </mxCell>
                <mxCell id="QZm6D6RaYYJHGgrteSE7-17" value="i + &quot; &quot;" style="shape=document;whiteSpace=wrap;html=1;boundedLbl=1;" vertex="1" parent="1">
                    <mxGeometry x="410" y="380" width="120" height="80" as="geometry"/>
                </mxCell>
                <mxCell id="QZm6D6RaYYJHGgrteSE7-19" value="i += 2" style="whiteSpace=wrap;html=1;" vertex="1" parent="1">
                    <mxGeometry x="410" y="481" width="120" height="60" as="geometry"/>
                </mxCell>
                <mxCell id="QZm6D6RaYYJHGgrteSE7-21" value="END" style="ellipse;whiteSpace=wrap;html=1;" vertex="1" parent="1">
                    <mxGeometry x="410" y="585.0044580078124" width="120" height="80" as="geometry"/>
                </mxCell>
                <mxCell id="QZm6D6RaYYJHGgrteSE7-22" value="false" style="text;html=1;align=center;verticalAlign=middle;resizable=0;points=[];autosize=1;strokeColor=none;fillColor=none;" vertex="1" parent="1">
                    <mxGeometry x="500" y="290" width="50" height="30" as="geometry"/>
                </mxCell>
            </root>
        </mxGraphModel>
    </diagram>
    <diagram id="ojj0vV5z6olHGA4vp-4X" name="25">
        <mxGraphModel dx="608" dy="247" grid="1" gridSize="10" guides="1" tooltips="1" connect="1" arrows="1" fold="1" page="1" pageScale="1" pageWidth="827" pageHeight="1169" math="0" shadow="0">
            <root>
                <mxCell id="0"/>
                <mxCell id="1" parent="0"/>
                <mxCell id="ajitAS5oZefkMm6IbS9C-3" value="" style="edgeStyle=none;html=1;" edge="1" parent="1" source="ajitAS5oZefkMm6IbS9C-1" target="ajitAS5oZefkMm6IbS9C-2">
                    <mxGeometry relative="1" as="geometry"/>
                </mxCell>
                <mxCell id="ajitAS5oZefkMm6IbS9C-1" value="START" style="ellipse;whiteSpace=wrap;html=1;" vertex="1" parent="1">
                    <mxGeometry x="250" y="30" width="120" height="80" as="geometry"/>
                </mxCell>
                <mxCell id="ajitAS5oZefkMm6IbS9C-5" value="" style="edgeStyle=none;html=1;" edge="1" parent="1" source="ajitAS5oZefkMm6IbS9C-2" target="ajitAS5oZefkMm6IbS9C-4">
                    <mxGeometry relative="1" as="geometry"/>
                </mxCell>
                <mxCell id="ajitAS5oZefkMm6IbS9C-2" value="input number" style="shape=parallelogram;perimeter=parallelogramPerimeter;whiteSpace=wrap;html=1;fixedSize=1;" vertex="1" parent="1">
                    <mxGeometry x="250" y="130" width="120" height="60" as="geometry"/>
                </mxCell>
                <mxCell id="ajitAS5oZefkMm6IbS9C-7" value="" style="edgeStyle=none;html=1;" edge="1" parent="1" source="ajitAS5oZefkMm6IbS9C-4" target="ajitAS5oZefkMm6IbS9C-6">
                    <mxGeometry relative="1" as="geometry"/>
                </mxCell>
                <mxCell id="ajitAS5oZefkMm6IbS9C-4" value="int deg = 10&lt;br&gt;i = 1" style="whiteSpace=wrap;html=1;" vertex="1" parent="1">
                    <mxGeometry x="250" y="210" width="120" height="60" as="geometry"/>
                </mxCell>
                <mxCell id="ajitAS5oZefkMm6IbS9C-9" value="" style="edgeStyle=none;html=1;" edge="1" parent="1" source="ajitAS5oZefkMm6IbS9C-6" target="ajitAS5oZefkMm6IbS9C-8">
                    <mxGeometry relative="1" as="geometry"/>
                </mxCell>
                <mxCell id="ajitAS5oZefkMm6IbS9C-12" value="" style="edgeStyle=none;html=1;" edge="1" parent="1" source="ajitAS5oZefkMm6IbS9C-6" target="ajitAS5oZefkMm6IbS9C-11">
                    <mxGeometry relative="1" as="geometry">
                        <Array as="points">
                            <mxPoint x="400" y="330"/>
                            <mxPoint x="400" y="420"/>
                            <mxPoint x="400" y="470"/>
                            <mxPoint x="310" y="470"/>
                        </Array>
                    </mxGeometry>
                </mxCell>
                <mxCell id="ajitAS5oZefkMm6IbS9C-6" value="if number / deg &amp;gt; 0" style="rhombus;whiteSpace=wrap;html=1;" vertex="1" parent="1">
                    <mxGeometry x="270" y="290" width="80" height="80" as="geometry"/>
                </mxCell>
                <mxCell id="ajitAS5oZefkMm6IbS9C-14" style="edgeStyle=none;html=1;entryX=0;entryY=0.5;entryDx=0;entryDy=0;" edge="1" parent="1" source="ajitAS5oZefkMm6IbS9C-8" target="ajitAS5oZefkMm6IbS9C-6">
                    <mxGeometry relative="1" as="geometry">
                        <Array as="points">
                            <mxPoint x="220" y="420"/>
                            <mxPoint x="220" y="330"/>
                        </Array>
                    </mxGeometry>
                </mxCell>
                <mxCell id="ajitAS5oZefkMm6IbS9C-8" value="deg = deg * 10&lt;br&gt;i ++" style="whiteSpace=wrap;html=1;" vertex="1" parent="1">
                    <mxGeometry x="250" y="390" width="120" height="60" as="geometry"/>
                </mxCell>
                <mxCell id="ajitAS5oZefkMm6IbS9C-10" value="true" style="text;html=1;align=center;verticalAlign=middle;resizable=0;points=[];autosize=1;strokeColor=none;fillColor=none;" vertex="1" parent="1">
                    <mxGeometry x="310" y="360" width="40" height="30" as="geometry"/>
                </mxCell>
                <mxCell id="ajitAS5oZefkMm6IbS9C-11" value="i" style="shape=document;whiteSpace=wrap;html=1;boundedLbl=1;" vertex="1" parent="1">
                    <mxGeometry x="250" y="500" width="120" height="80" as="geometry"/>
                </mxCell>
                <mxCell id="ajitAS5oZefkMm6IbS9C-13" value="false" style="text;html=1;align=center;verticalAlign=middle;resizable=0;points=[];autosize=1;strokeColor=none;fillColor=none;" vertex="1" parent="1">
                    <mxGeometry x="350" y="305" width="50" height="30" as="geometry"/>
                </mxCell>
            </root>
        </mxGraphModel>
    </diagram>
    <diagram id="owPteiiIl6o8lgORZdNs" name="My">
        <mxGraphModel dx="608" dy="247" grid="1" gridSize="10" guides="1" tooltips="1" connect="1" arrows="1" fold="1" page="1" pageScale="1" pageWidth="827" pageHeight="1169" math="0" shadow="0">
            <root>
                <mxCell id="0"/>
                <mxCell id="1" parent="0"/>
                <mxCell id="08gSnhJHF3pis_ee7Y-u-1" value="" style="edgeStyle=none;html=1;" edge="1" parent="1" source="08gSnhJHF3pis_ee7Y-u-2" target="08gSnhJHF3pis_ee7Y-u-4">
                    <mxGeometry relative="1" as="geometry"/>
                </mxCell>
                <mxCell id="08gSnhJHF3pis_ee7Y-u-2" value="START" style="ellipse;whiteSpace=wrap;html=1;" vertex="1" parent="1">
                    <mxGeometry x="264" y="30" width="120" height="80" as="geometry"/>
                </mxCell>
                <mxCell id="08gSnhJHF3pis_ee7Y-u-3" value="" style="edgeStyle=none;html=1;" edge="1" parent="1" source="08gSnhJHF3pis_ee7Y-u-4" target="08gSnhJHF3pis_ee7Y-u-6">
                    <mxGeometry relative="1" as="geometry"/>
                </mxCell>
                <mxCell id="08gSnhJHF3pis_ee7Y-u-4" value="input number" style="shape=parallelogram;perimeter=parallelogramPerimeter;whiteSpace=wrap;html=1;fixedSize=1;" vertex="1" parent="1">
                    <mxGeometry x="264" y="130" width="120" height="60" as="geometry"/>
                </mxCell>
                <mxCell id="08gSnhJHF3pis_ee7Y-u-5" value="" style="edgeStyle=none;html=1;" edge="1" parent="1" source="08gSnhJHF3pis_ee7Y-u-6" target="08gSnhJHF3pis_ee7Y-u-9">
                    <mxGeometry relative="1" as="geometry"/>
                </mxCell>
                <mxCell id="08gSnhJHF3pis_ee7Y-u-6" value="int deg = 1" style="whiteSpace=wrap;html=1;" vertex="1" parent="1">
                    <mxGeometry x="264" y="210" width="120" height="60" as="geometry"/>
                </mxCell>
                <mxCell id="08gSnhJHF3pis_ee7Y-u-7" value="" style="edgeStyle=none;html=1;" edge="1" parent="1" source="08gSnhJHF3pis_ee7Y-u-9">
                    <mxGeometry relative="1" as="geometry">
                        <mxPoint x="324" y="400" as="targetPoint"/>
                    </mxGeometry>
                </mxCell>
                <mxCell id="08gSnhJHF3pis_ee7Y-u-8" value="" style="edgeStyle=none;html=1;entryX=0.5;entryY=0;entryDx=0;entryDy=0;" edge="1" parent="1" source="08gSnhJHF3pis_ee7Y-u-9" target="08gSnhJHF3pis_ee7Y-u-18">
                    <mxGeometry relative="1" as="geometry">
                        <Array as="points">
                            <mxPoint x="414" y="330"/>
                            <mxPoint x="414" y="420"/>
                            <mxPoint x="414" y="470"/>
                            <mxPoint x="414" y="580"/>
                            <mxPoint x="322" y="580"/>
                        </Array>
                        <mxPoint x="384" y="659.53125" as="targetPoint"/>
                    </mxGeometry>
                </mxCell>
                <mxCell id="08gSnhJHF3pis_ee7Y-u-9" value="if number / deg &amp;gt; 0" style="rhombus;whiteSpace=wrap;html=1;" vertex="1" parent="1">
                    <mxGeometry x="284" y="290" width="80" height="80" as="geometry"/>
                </mxCell>
                <mxCell id="08gSnhJHF3pis_ee7Y-u-10" style="edgeStyle=none;html=1;entryX=0;entryY=0.5;entryDx=0;entryDy=0;" edge="1" parent="1" source="08gSnhJHF3pis_ee7Y-u-11" target="08gSnhJHF3pis_ee7Y-u-9">
                    <mxGeometry relative="1" as="geometry">
                        <Array as="points">
                            <mxPoint x="240" y="530"/>
                            <mxPoint x="240" y="330"/>
                        </Array>
                    </mxGeometry>
                </mxCell>
                <mxCell id="08gSnhJHF3pis_ee7Y-u-11" value="deg = deg * 10" style="whiteSpace=wrap;html=1;" vertex="1" parent="1">
                    <mxGeometry x="264" y="500" width="120" height="60" as="geometry"/>
                </mxCell>
                <mxCell id="08gSnhJHF3pis_ee7Y-u-12" value="true" style="text;html=1;align=center;verticalAlign=middle;resizable=0;points=[];autosize=1;strokeColor=none;fillColor=none;" vertex="1" parent="1">
                    <mxGeometry x="324" y="360" width="40" height="30" as="geometry"/>
                </mxCell>
                <mxCell id="08gSnhJHF3pis_ee7Y-u-14" value="false" style="text;html=1;align=center;verticalAlign=middle;resizable=0;points=[];autosize=1;strokeColor=none;fillColor=none;" vertex="1" parent="1">
                    <mxGeometry x="364" y="305" width="50" height="30" as="geometry"/>
                </mxCell>
                <mxCell id="08gSnhJHF3pis_ee7Y-u-17" style="edgeStyle=none;html=1;entryX=0.5;entryY=0;entryDx=0;entryDy=0;exitX=0.494;exitY=0.864;exitDx=0;exitDy=0;exitPerimeter=0;" edge="1" parent="1" source="08gSnhJHF3pis_ee7Y-u-16" target="08gSnhJHF3pis_ee7Y-u-11">
                    <mxGeometry relative="1" as="geometry"/>
                </mxCell>
                <mxCell id="08gSnhJHF3pis_ee7Y-u-16" value="number / deg % 10" style="shape=document;whiteSpace=wrap;html=1;boundedLbl=1;" vertex="1" parent="1">
                    <mxGeometry x="264" y="400" width="120" height="80" as="geometry"/>
                </mxCell>
                <mxCell id="08gSnhJHF3pis_ee7Y-u-18" value="END" style="ellipse;whiteSpace=wrap;html=1;" vertex="1" parent="1">
                    <mxGeometry x="264" y="620" width="116" height="80" as="geometry"/>
                </mxCell>
            </root>
        </mxGraphModel>
    </diagram>
    <diagram id="cfrtkUcnGP-fvLHdmRg9" name="28">
        <mxGraphModel dx="529" dy="247" grid="1" gridSize="10" guides="1" tooltips="1" connect="1" arrows="1" fold="1" page="1" pageScale="1" pageWidth="827" pageHeight="1169" math="0" shadow="0">
            <root>
                <mxCell id="0"/>
                <mxCell id="1" parent="0"/>
                <mxCell id="gGYFhBbwhC2tARgWElXx-3" value="" style="edgeStyle=none;html=1;" parent="1" source="gGYFhBbwhC2tARgWElXx-1" target="gGYFhBbwhC2tARgWElXx-2" edge="1">
                    <mxGeometry relative="1" as="geometry"/>
                </mxCell>
                <mxCell id="gGYFhBbwhC2tARgWElXx-1" value="START" style="ellipse;whiteSpace=wrap;html=1;" parent="1" vertex="1">
                    <mxGeometry x="240" y="90" width="120" height="80" as="geometry"/>
                </mxCell>
                <mxCell id="gGYFhBbwhC2tARgWElXx-5" value="" style="edgeStyle=none;html=1;" parent="1" source="gGYFhBbwhC2tARgWElXx-2" target="gGYFhBbwhC2tARgWElXx-4" edge="1">
                    <mxGeometry relative="1" as="geometry"/>
                </mxCell>
                <mxCell id="gGYFhBbwhC2tARgWElXx-2" value="input N1&lt;br&gt;input N2" style="shape=parallelogram;perimeter=parallelogramPerimeter;whiteSpace=wrap;html=1;fixedSize=1;" parent="1" vertex="1">
                    <mxGeometry x="240" y="190" width="120" height="60" as="geometry"/>
                </mxCell>
                <mxCell id="gGYFhBbwhC2tARgWElXx-7" value="" style="edgeStyle=none;html=1;" parent="1" source="gGYFhBbwhC2tARgWElXx-4" target="gGYFhBbwhC2tARgWElXx-6" edge="1">
                    <mxGeometry relative="1" as="geometry"/>
                </mxCell>
                <mxCell id="gGYFhBbwhC2tARgWElXx-4" value="i = N1" style="whiteSpace=wrap;html=1;" parent="1" vertex="1">
                    <mxGeometry x="240" y="270" width="120" height="60" as="geometry"/>
                </mxCell>
                <mxCell id="gGYFhBbwhC2tARgWElXx-9" value="" style="edgeStyle=none;html=1;" parent="1" source="gGYFhBbwhC2tARgWElXx-6" target="gGYFhBbwhC2tARgWElXx-8" edge="1">
                    <mxGeometry relative="1" as="geometry"/>
                </mxCell>
                <mxCell id="gGYFhBbwhC2tARgWElXx-17" style="edgeStyle=none;html=1;exitX=1;exitY=0.5;exitDx=0;exitDy=0;entryX=0.5;entryY=0;entryDx=0;entryDy=0;" parent="1" source="gGYFhBbwhC2tARgWElXx-6" target="gGYFhBbwhC2tARgWElXx-15" edge="1">
                    <mxGeometry relative="1" as="geometry">
                        <Array as="points">
                            <mxPoint x="400" y="390"/>
                            <mxPoint x="400" y="650"/>
                            <mxPoint x="300" y="650"/>
                        </Array>
                    </mxGeometry>
                </mxCell>
                <mxCell id="gGYFhBbwhC2tARgWElXx-6" value="if i &amp;lt;= N2" style="rhombus;whiteSpace=wrap;html=1;" parent="1" vertex="1">
                    <mxGeometry x="260" y="350" width="80" height="80" as="geometry"/>
                </mxCell>
                <mxCell id="gGYFhBbwhC2tARgWElXx-12" value="" style="edgeStyle=none;html=1;" parent="1" source="gGYFhBbwhC2tARgWElXx-8" target="gGYFhBbwhC2tARgWElXx-11" edge="1">
                    <mxGeometry relative="1" as="geometry"/>
                </mxCell>
                <mxCell id="gGYFhBbwhC2tARgWElXx-22" style="edgeStyle=none;html=1;exitX=0;exitY=0.5;exitDx=0;exitDy=0;" parent="1" source="gGYFhBbwhC2tARgWElXx-8" edge="1">
                    <mxGeometry relative="1" as="geometry">
                        <mxPoint x="200" y="490" as="targetPoint"/>
                    </mxGeometry>
                </mxCell>
                <mxCell id="gGYFhBbwhC2tARgWElXx-8" value="if i % 10 % 2 == 0" style="rhombus;whiteSpace=wrap;html=1;" parent="1" vertex="1">
                    <mxGeometry x="240" y="450" width="120" height="80" as="geometry"/>
                </mxCell>
                <mxCell id="gGYFhBbwhC2tARgWElXx-10" value="true" style="text;html=1;align=center;verticalAlign=middle;resizable=0;points=[];autosize=1;strokeColor=none;fillColor=none;" parent="1" vertex="1">
                    <mxGeometry x="300" y="420" width="40" height="30" as="geometry"/>
                </mxCell>
                <mxCell id="gGYFhBbwhC2tARgWElXx-14" style="edgeStyle=none;html=1;entryX=0;entryY=0.5;entryDx=0;entryDy=0;" parent="1" source="gGYFhBbwhC2tARgWElXx-11" target="gGYFhBbwhC2tARgWElXx-6" edge="1">
                    <mxGeometry relative="1" as="geometry">
                        <Array as="points">
                            <mxPoint x="200" y="590"/>
                            <mxPoint x="200" y="480"/>
                            <mxPoint x="200" y="390"/>
                        </Array>
                    </mxGeometry>
                </mxCell>
                <mxCell id="gGYFhBbwhC2tARgWElXx-11" value="i * i * i" style="shape=document;whiteSpace=wrap;html=1;boundedLbl=1;" parent="1" vertex="1">
                    <mxGeometry x="240" y="550" width="120" height="80" as="geometry"/>
                </mxCell>
                <mxCell id="gGYFhBbwhC2tARgWElXx-13" value="true" style="text;html=1;align=center;verticalAlign=middle;resizable=0;points=[];autosize=1;strokeColor=none;fillColor=none;" parent="1" vertex="1">
                    <mxGeometry x="300" y="520" width="40" height="30" as="geometry"/>
                </mxCell>
                <mxCell id="gGYFhBbwhC2tARgWElXx-15" value="END" style="ellipse;whiteSpace=wrap;html=1;" parent="1" vertex="1">
                    <mxGeometry x="240" y="690" width="120" height="80" as="geometry"/>
                </mxCell>
                <mxCell id="gGYFhBbwhC2tARgWElXx-18" value="false" style="text;html=1;align=center;verticalAlign=middle;resizable=0;points=[];autosize=1;strokeColor=none;fillColor=none;" parent="1" vertex="1">
                    <mxGeometry x="330" y="360" width="50" height="30" as="geometry"/>
                </mxCell>
                <mxCell id="gGYFhBbwhC2tARgWElXx-21" value="false" style="text;html=1;align=center;verticalAlign=middle;resizable=0;points=[];autosize=1;strokeColor=none;fillColor=none;" parent="1" vertex="1">
                    <mxGeometry x="200" y="460" width="50" height="30" as="geometry"/>
                </mxCell>
            </root>
        </mxGraphModel>
    </diagram>
    <diagram id="r0ey8Tr5muwUO3CKhEg0" name="26_Alex">
        <mxGraphModel dx="529" dy="247" grid="1" gridSize="10" guides="1" tooltips="1" connect="1" arrows="1" fold="1" page="1" pageScale="1" pageWidth="827" pageHeight="1169" math="0" shadow="0">
            <root>
                <mxCell id="0"/>
                <mxCell id="1" parent="0"/>
                <mxCell id="dw9TXRkQYX_B72bxFR-G-3" value="" style="edgeStyle=none;html=1;" edge="1" parent="1" source="dw9TXRkQYX_B72bxFR-G-1" target="dw9TXRkQYX_B72bxFR-G-2">
                    <mxGeometry relative="1" as="geometry"/>
                </mxCell>
                <mxCell id="dw9TXRkQYX_B72bxFR-G-1" value="START" style="ellipse;whiteSpace=wrap;html=1;" vertex="1" parent="1">
                    <mxGeometry x="320" y="90" width="120" height="80" as="geometry"/>
                </mxCell>
                <mxCell id="dw9TXRkQYX_B72bxFR-G-5" value="" style="edgeStyle=none;html=1;" edge="1" parent="1" source="dw9TXRkQYX_B72bxFR-G-2" target="dw9TXRkQYX_B72bxFR-G-4">
                    <mxGeometry relative="1" as="geometry"/>
                </mxCell>
                <mxCell id="dw9TXRkQYX_B72bxFR-G-2" value="input number" style="shape=parallelogram;perimeter=parallelogramPerimeter;whiteSpace=wrap;html=1;fixedSize=1;" vertex="1" parent="1">
                    <mxGeometry x="320" y="190" width="120" height="60" as="geometry"/>
                </mxCell>
                <mxCell id="dw9TXRkQYX_B72bxFR-G-7" value="" style="edgeStyle=none;html=1;" edge="1" parent="1" source="dw9TXRkQYX_B72bxFR-G-4" target="dw9TXRkQYX_B72bxFR-G-6">
                    <mxGeometry relative="1" as="geometry"/>
                </mxCell>
                <mxCell id="dw9TXRkQYX_B72bxFR-G-4" value="int result = 0" style="whiteSpace=wrap;html=1;" vertex="1" parent="1">
                    <mxGeometry x="320" y="270" width="120" height="60" as="geometry"/>
                </mxCell>
                <mxCell id="dw9TXRkQYX_B72bxFR-G-9" value="" style="edgeStyle=none;html=1;" edge="1" parent="1" source="dw9TXRkQYX_B72bxFR-G-6" target="dw9TXRkQYX_B72bxFR-G-8">
                    <mxGeometry relative="1" as="geometry"/>
                </mxCell>
                <mxCell id="dw9TXRkQYX_B72bxFR-G-13" value="" style="edgeStyle=none;html=1;" edge="1" parent="1" source="dw9TXRkQYX_B72bxFR-G-6" target="dw9TXRkQYX_B72bxFR-G-12">
                    <mxGeometry relative="1" as="geometry">
                        <Array as="points">
                            <mxPoint x="480" y="390"/>
                            <mxPoint x="480" y="530"/>
                            <mxPoint x="380" y="530"/>
                        </Array>
                    </mxGeometry>
                </mxCell>
                <mxCell id="dw9TXRkQYX_B72bxFR-G-6" value="number != 0" style="rhombus;whiteSpace=wrap;html=1;" vertex="1" parent="1">
                    <mxGeometry x="320" y="350" width="120" height="80" as="geometry"/>
                </mxCell>
                <mxCell id="dw9TXRkQYX_B72bxFR-G-11" style="edgeStyle=none;html=1;entryX=0.5;entryY=0;entryDx=0;entryDy=0;" edge="1" parent="1" source="dw9TXRkQYX_B72bxFR-G-8" target="dw9TXRkQYX_B72bxFR-G-6">
                    <mxGeometry relative="1" as="geometry">
                        <Array as="points">
                            <mxPoint x="280" y="480"/>
                            <mxPoint x="280" y="350"/>
                        </Array>
                    </mxGeometry>
                </mxCell>
                <mxCell id="dw9TXRkQYX_B72bxFR-G-8" value="result += number % 10&lt;br&gt;number /= 10" style="whiteSpace=wrap;html=1;" vertex="1" parent="1">
                    <mxGeometry x="315" y="450" width="130" height="60" as="geometry"/>
                </mxCell>
                <mxCell id="dw9TXRkQYX_B72bxFR-G-10" value="true" style="text;html=1;align=center;verticalAlign=middle;resizable=0;points=[];autosize=1;strokeColor=none;fillColor=none;" vertex="1" parent="1">
                    <mxGeometry x="380" y="420" width="40" height="30" as="geometry"/>
                </mxCell>
                <mxCell id="dw9TXRkQYX_B72bxFR-G-16" value="" style="edgeStyle=none;html=1;" edge="1" parent="1" source="dw9TXRkQYX_B72bxFR-G-12" target="dw9TXRkQYX_B72bxFR-G-15">
                    <mxGeometry relative="1" as="geometry"/>
                </mxCell>
                <mxCell id="dw9TXRkQYX_B72bxFR-G-12" value="result" style="shape=document;whiteSpace=wrap;html=1;boundedLbl=1;" vertex="1" parent="1">
                    <mxGeometry x="320" y="570" width="120" height="80" as="geometry"/>
                </mxCell>
                <mxCell id="dw9TXRkQYX_B72bxFR-G-14" value="false" style="text;html=1;align=center;verticalAlign=middle;resizable=0;points=[];autosize=1;strokeColor=none;fillColor=none;" vertex="1" parent="1">
                    <mxGeometry x="430" y="365" width="50" height="30" as="geometry"/>
                </mxCell>
                <mxCell id="dw9TXRkQYX_B72bxFR-G-15" value="END" style="ellipse;whiteSpace=wrap;html=1;" vertex="1" parent="1">
                    <mxGeometry x="320" y="680" width="120" height="80" as="geometry"/>
                </mxCell>
            </root>
        </mxGraphModel>
    </diagram>
</mxfile>